<svg xmlns="http://www.w3.org/2000/svg" width="256" height="256"><path fill="#F3F1EC" d="m64.206-.29 4.61-.02c4.157-.018 8.314-.023 12.472-.025q3.904-.001 7.81-.01 13.647-.028 27.296-.026a6535 6535 0 0 0 25.36-.051q10.92-.038 21.841-.036c4.338 0 8.676-.005 13.014-.026q6.127-.029 12.256-.005 2.233.003 4.468-.015c18.127-.138 32.975 5.059 45.972 17.75 13.142 13.428 17 28.694 16.986 46.96a3176 3176 0 0 1 .044 17.082q.001 3.904.01 7.81.028 13.647.026 27.296c-.002 8.454.02 16.907.051 25.36q.038 10.92.036 21.841c0 4.338.005 8.676.026 13.014q.029 6.127.005 12.256-.003 2.233.015 4.468c.135 17.637-4.918 32.472-17.152 45.382-13.92 13.527-28.852 17.754-47.898 17.69a2188 2188 0 0 1-17.046.032c-3.474-.004-6.948.002-10.421.008q-12.304.02-24.608.001c-8.431-.011-16.862.003-25.294.03q-10.901.032-21.802.022c-4.328-.003-8.656 0-12.984.017q-6.109.022-12.218-.008-2.228-.005-4.454.01c-17.617.116-32.448-4.946-45.342-17.165C3.758 225.432-.469 210.5-.405 191.454a2188 2188 0 0 1-.032-17.046c.004-3.474-.002-6.948-.008-10.421q-.02-12.304-.001-24.608c.011-8.431-.003-16.862-.03-25.294q-.032-10.901-.022-21.802.006-6.492-.017-12.984-.022-6.109.008-12.218.005-2.228-.01-4.454c-.119-18.108 5.086-32.95 17.763-45.932C30.674 3.553 45.94-.305 64.206-.29"/><path fill="#2D170B" d="m128.344 13.17.556.305.558.29.592.332.674.377.721.407.757.426a386 386 0 0 1 5.645 3.254 492 492 0 0 0 5.228 3.014 665 665 0 0 1 6.54 3.776c2.368 1.385 4.745 2.754 7.121 4.123l3.664 2.113 1.463.844 32.175 18.563 5.865 3.383q3.529 2.03 7.044 4.084a604 604 0 0 0 5.878 3.389 665 665 0 0 1 6.528 3.77q2.624 1.532 5.256 3.05l.771.446.711.41.632.364q.47.268.952.51v115.2l-5.625 3.15c-1.016.595-2.03 1.192-3.037 1.8a246 246 0 0 1-6.704 3.855q-2.169 1.206-4.304 2.47a400 400 0 0 1-5.033 2.927l-1.533.883-3.689 2.127-1.462.844c-.362.21-.362.21-.732.422l-2.925 1.688-5.134 2.96q-3.529 2.032-7.044 4.085a642 642 0 0 1-6.28 3.619 537 537 0 0 0-5.448 3.145 572 572 0 0 1-5.85 3.375 667 667 0 0 0-6.54 3.776 1257 1257 0 0 1-7.121 4.123l-3.664 2.113-1.462.844c-.362.21-.362.21-.732.422l-2.926 1.688-8.167 4.71-.665.38q-.71.416-1.404.858l-.72.45-.644.416c-.605.245-.605.245-1.174.1l-.556-.305-.558-.29-.592-.332-.674-.377-.721-.407-.757-.426a386 386 0 0 1-5.645-3.254 492 492 0 0 0-5.228-3.014 665 665 0 0 1-6.54-3.776 1257 1257 0 0 0-7.121-4.123l-3.664-2.114-1.462-.843-32.175-18.563-5.866-3.383a1476 1476 0 0 1-7.74-4.488c-2.375-1.387-4.76-2.761-7.143-4.134l-3.664-2.114-5.794-3.344-1.159-.67-.704-.406-.623-.36q-.465-.266-.945-.507V70.4l5.625-3.15c1.016-.595 2.03-1.192 3.038-1.8a246 246 0 0 1 6.703-3.855q2.169-1.206 4.304-2.47a400 400 0 0 1 5.033-2.927l1.533-.883q1.845-1.062 3.689-2.128l1.463-.843q.359-.209.73-.422l2.926-1.688 5.134-2.96q3.529-2.032 7.044-4.085a642 642 0 0 1 6.28-3.619 537 537 0 0 0 5.448-3.145 572 572 0 0 1 5.85-3.375 667 667 0 0 0 6.54-3.776c2.368-1.385 4.745-2.754 7.121-4.123l3.664-2.114 1.463-.843q.359-.209.73-.422l2.927-1.688 7.485-4.317.682-.394q.329-.186.665-.38.71-.415 1.404-.857l.72-.45.644-.416c.605-.245.605-.245 1.174-.1"/><path fill="#9AE96E" d="m128.344 13.17.556.305.558.29.592.332.674.377.721.407.757.426a386 386 0 0 1 5.645 3.254 492 492 0 0 0 5.228 3.014 665 665 0 0 1 6.54 3.776c2.368 1.385 4.745 2.754 7.121 4.123l3.664 2.113 1.463.844 32.175 18.563 5.865 3.383q3.529 2.03 7.044 4.084a604 604 0 0 0 5.878 3.389 633 633 0 0 1 6.528 3.77 459 459 0 0 0 4.052 2.346l1.975 1.13.711.408.632.36c.502.311.502.311.952.761l-.327.177a282 282 0 0 0-8.163 4.623c-1.432.84-2.869 1.67-4.307 2.498l-.736.425-1.478.851L209 81.312l-1.462.844-.732.422-14.625 8.438-5.134 2.96q-3.529 2.032-7.044 4.085a642 642 0 0 1-6.28 3.619 537 537 0 0 0-5.448 3.145 572 572 0 0 1-5.85 3.375 667 667 0 0 0-6.54 3.776 1257 1257 0 0 1-7.121 4.123l-3.664 2.113-1.462.844-.732.422-2.926 1.688-4.844 2.794-2.68 1.543-.687.396-.66.376q-.637.377-1.255.788c-1.453.957-1.453.957-2.343.855l-.636-.368-.763-.417q-.436-.262-.868-.525l-1.014-.606-.563-.336c-1.189-.705-2.387-1.392-3.584-2.082l-.774-.446a816 816 0 0 0-3.712-2.127 441 441 0 0 1-4.078-2.363 1500 1500 0 0 0-7.98-4.622l-4.394-2.535-3.673-2.118q-3.529-2.03-7.044-4.084a707 707 0 0 0-6.65-3.831q-3.759-2.147-7.504-4.315l-3.649-2.106-2.194-1.265-8.043-4.64-.732-.423-5.134-2.96a1568 1568 0 0 1-7.199-4.17l-.614-.358c-1.931-1.127-3.857-2.262-5.784-3.396V92c-1.821-.91-3.582-1.835-5.33-2.869l-.703-.413a916 916 0 0 1-3.243-1.915l-.533-.315-.97-.578c-.604-.358-1.154-.663-1.821-.885V70.4l5.625-3.15c1.016-.595 2.03-1.192 3.038-1.8a246 246 0 0 1 6.703-3.855q2.169-1.206 4.304-2.47a400 400 0 0 1 5.033-2.927l1.533-.883q1.845-1.062 3.689-2.128l1.463-.843q.359-.209.73-.422l2.926-1.688 5.134-2.96q3.529-2.032 7.044-4.085a642 642 0 0 1 6.28-3.619 537 537 0 0 0 5.448-3.145 572 572 0 0 1 5.85-3.375 667 667 0 0 0 6.54-3.776c2.368-1.385 4.745-2.754 7.121-4.123l3.664-2.114 1.463-.843q.359-.209.73-.422l2.927-1.688 7.485-4.317.682-.394q.329-.186.665-.38.71-.415 1.404-.857l.72-.45.644-.416c.605-.245.605-.245 1.174-.1"/><path fill="#7F5438" d="M40.925 77.825c.84.336 1.537.664 2.309 1.114l.697.404.749.437 2.413 1.401q1.864 1.081 3.732 2.157l2.194 1.265 19.744 11.39.73.423 5.135 2.96q3.916 2.256 7.817 4.536a505 505 0 0 0 4.899 2.819c1.466.836 2.925 1.685 4.383 2.538a595 595 0 0 0 5.948 3.431 662 662 0 0 1 6.62 3.824q2.124 1.242 4.264 2.462c3.742 2.133 7.472 4.288 11.194 6.455l.666.387.63.367.544.317.607.363.445.214c1.252.655 1.252.655 1.522 1.325.063.514.068 1.002.054 1.52l.007.592c.005.658-.004 1.316-.012 1.974l.005 1.426c.004 1.308-.003 2.616-.012 3.925-.008 1.41-.005 2.82-.004 4.23q0 3.666-.015 7.33-.015 3.846-.02 7.69v.483l-.001 2.427q-.007 8.598-.033 17.196-.026 8.354-.037 16.707v.52l-.023 15.705v.489c-.017 10.782-.046 21.565-.076 32.347l-1.179-.643-.663-.362a298 298 0 0 1-7.925-4.486 517 517 0 0 0-5.308-3.059 664 664 0 0 1-6.54-3.776 1257 1257 0 0 0-7.121-4.123l-3.664-2.113-1.463-.844-32.175-18.563-.73-.422-5.135-2.96a1476 1476 0 0 1-7.74-4.489c-2.375-1.387-4.76-2.761-7.143-4.134l-3.664-2.114-.72-.414a5910 5910 0 0 1-6.233-3.6l-.704-.406-.623-.36q-.465-.266-.945-.507V85.025c.987.247 1.768.671 2.644 1.167l.526.295c1.774 1 3.532 2.027 5.287 3.058l.656.385.576.339c.89.512 1.789 1.007 2.686 1.506z"/><path fill="#321A0D" d="M227.675 113.825V185.6l-5.625 3.15c-1.016.595-2.03 1.192-3.037 1.8a246 246 0 0 1-6.704 3.855q-2.168 1.206-4.304 2.47a400 400 0 0 1-4.278 2.492l-.755.435-1.533.883-3.689 2.127-1.462.844-.732.422-2.925 1.688-5.134 2.96a1329 1329 0 0 0-7.044 4.085 642 642 0 0 1-6.28 3.619 537 537 0 0 0-5.448 3.145 572 572 0 0 1-5.85 3.375 667 667 0 0 0-6.54 3.776 1257 1257 0 0 1-7.121 4.123l-3.664 2.114-1.463.843q-.359.209-.73.422l-2.927 1.688-8.167 4.71-.662.382c-.956.554-1.908 1.116-2.86 1.678-.516.289-.516.289-.741.289V199.55l5.625-3.15q1.488-.857 2.967-1.73l1.318-.776.555-.328c.625-.353 1.269-.67 1.91-.991v14.175c3.944-2.142 3.944-2.142 7.833-4.373a167 167 0 0 1 4.542-2.602c.3.6.261 1.068.271 1.74l.014.82.011.887.014.906q.019 1.192.035 2.386l.036 2.434q.036 2.389.069 4.777a351 351 0 0 0 5.652-3.137c1.567-.887 3.123-1.79 4.666-2.717.607-.362 1.16-.672 1.832-.896l-.014-.538q-.06-2.512-.09-5.025-.015-1.29-.049-2.583a123 123 0 0 1-.04-2.494 42 42 0 0 0-.021-.95c-.082-2.473-.082-2.473.633-3.287a10 10 0 0 1 1.606-.873l.686-.407.608-.335.69-.383.716-.394a225 225 0 0 0 5.616-3.201 40 40 0 0 0 1.809-1.13c.067-.605.067-.605.004-1.32l-.043-.84-.027-.451c-.042-.794-.06-1.588-.08-2.383a74 74 0 0 0-.13-3.024c-.352-5.409-.352-5.409 1.044-7.002 1.399-1.095 2.958-1.798 4.597-2.46.901-.374 1.71-.841 2.537-1.355l.734-.425 1.436-.835.713-.413q.305-.179.62-.36c.52-.282.52-.282 1.195-.507v14.175l5.4-3.15a1280 1280 0 0 1 4.672-2.682l.625-.357.553-.336.478-.274c.48-.377.48-.377.53-1.012l-.006-.746v-.846l-.014-.914-.004-.936q-.006-1.23-.022-2.46-.013-1.255-.018-2.511-.015-2.463-.044-4.926l-2.812 1.603-.51.29a391 391 0 0 0-4.583 2.647l-.747.44q-.705.415-1.408.832l-.636.376-.557.33c-.447.232-.447.232-.897.232q-.071-2.737-.105-5.475-.014-1.271-.048-2.542-.032-1.227-.04-2.455a40 40 0 0 0-.021-.935c-.082-2.431-.082-2.431.628-3.238a10 10 0 0 1 1.611-.88l.748-.448.693-.392.388-.22a492 492 0 0 1 1.994-1.128l.397-.224q.402-.23.799-.47c.761-.456 1.487-.8 2.329-1.084 1.128-.427 2.088-.857 2.777-1.884.59-2.125.367-4.464.262-6.647a138 138 0 0 1-.116-3.913 46 46 0 0 0-.061-1.359c-.058-1.998-.058-1.998.497-2.721.464-.358.92-.624 1.443-.885l.722-.448.697-.392.385-.218q.61-.345 1.22-.686l2.122-1.2a167 167 0 0 0 3.137-1.823 257 257 0 0 1 4.92-2.825q2.755-1.554 5.5-3.124l.415-.237 1.176-.671.682-.39q.621-.36 1.226-.745c.523-.291.523-.291 1.198-.291"/><path fill="#3B8426" d="M40.925 77.825c.84.336 1.537.664 2.309 1.114l.697.404.749.437 2.413 1.401q1.864 1.081 3.732 2.157l2.194 1.265 19.744 11.39.73.423 5.135 2.96q3.916 2.256 7.817 4.536a505 505 0 0 0 4.899 2.819c1.466.836 2.925 1.685 4.383 2.538a595 595 0 0 0 5.948 3.431 662 662 0 0 1 6.62 3.824q2.124 1.242 4.264 2.462c3.742 2.133 7.472 4.288 11.194 6.455l.666.387.63.367.544.317.607.363.446.138c.62.25.93.463 1.354.987.28 1.351.227 2.698.204 4.073l.001 1.27q-.002 1.725-.022 3.449c-.012 1.201-.013 2.403-.015 3.604q-.01 3.413-.038 6.825c-.02 2.59-.03 5.18-.04 7.77a4001 4001 0 0 1-.09 15.984 18 18 0 0 1-2.33-1.104l-.7-.392-.739-.417-.76-.427c-4.144-2.338-4.144-2.338-5.606-3.253-.435-.267-.435-.267-.909-.456-.542-.257-.916-.49-1.331-.926-.244-.907-.176-1.783-.125-2.714l.023-.835q.025-.896.063-1.794c.038-.948.058-1.897.073-2.847.047-2.7.105-5.398.214-8.096q.09-2.234.107-4.473c.007-.789.026-1.574.073-2.361.177-2.922.177-2.922-.653-5.68-1.529-1.54-3.503-2.383-5.472-3.226-1.36-.594-2.611-1.381-3.88-2.146l-1.322-.772a34 34 0 0 1-1.701-1.056v14.175a19 19 0 0 1-2.291-1.08l-.682-.381-.725-.41-.748-.42c-5.867-3.31-5.867-3.31-7.929-4.684v14.175c-.968-.323-1.628-.571-2.473-1.072l-.652-.383-.672-.401-1.292-.763-1.661-.981-5.4-3.15-.225 28.125c-1.026-.205-1.557-.421-2.439-.932l-.383-.22q-.609-.35-1.214-.704l-1.164-.669a34 34 0 0 1-.813-.49 16 16 0 0 0-2.717-1.322c-1.407-.592-2.694-1.182-3.645-2.413-.754-2.22-.49-4.677-.34-6.98.051-.863.073-1.726.098-2.59.053-1.686.137-3.37.242-5.055l-.64-.206c-.683-.235-1.237-.514-1.857-.882l-.652-.385-.69-.411-2.184-1.29c-1.308-.767-2.628-1.516-3.947-2.266l-.551-.314-.478-.272-.476-.274-.586-.27c-.539-.405-.539-.405-.66-1.02l.026-.751.02-.854.018-.456q.024-.71.03-1.42c.017-1.346.042-2.69.09-4.036.29-3.504.29-3.504-.583-6.753-.753-.74-1.629-1.075-2.624-1.384-.729-.25-1.33-.64-1.986-1.045l-1.465-.84a175 175 0 0 1-4.647-2.737c-.478-.29-.478-.29-1.133-.484v13.95c-.938-.313-1.554-.528-2.359-1.015l-.573-.344-.612-.37-1.315-.787-.702-.42c-1.308-.777-2.627-1.536-3.945-2.295l-.775-.447c-1.147-.672-1.147-.672-2.319-1.297V85.025c.987.247 1.768.671 2.644 1.167l.526.295c1.774 1 3.532 2.027 5.287 3.058l.656.385.576.339c.89.512 1.789 1.007 2.686 1.506z"/><path fill="#9AE96E" d="m153.302 27.575.573.3c.289.15.289.15.583.305l.623.349.698.391.74.418.768.432a234 234 0 0 1 4.556 2.63 397 397 0 0 0 5.035 2.927l1.533.883q1.845 1.063 3.689 2.128l1.462.843 20.475 11.813 5.866 3.383q4.55 2.62 9.08 5.269l3.73 2.176 1.37.8.582.339.41.239c-.568.639-1.203 1.008-1.945 1.426l-.779.44-.834.468-1.711.969-.434.246a204 204 0 0 0-4.742 2.794l-.575.344-.5.302c-.405.211-.405.211-.855.211v.45l.601.184c.705.25 1.286.54 1.928.92l.666.392.7.417.72.424 1.446.855q1.216.72 2.434 1.433l2.08 1.225c-.662.72-1.325 1.187-2.176 1.665l-.768.434-.407.227q-.856.479-1.708.962l-.875.495a265 265 0 0 0-3.966 2.292 568 568 0 0 1-5.85 3.375 883 883 0 0 0-9.225 5.345 469 469 0 0 1-8.782 5.041l-.576.322a25 25 0 0 0-1.921 1.265c-.6.252-.93.142-1.546-.048q-.614-.295-1.206-.632l-.7-.394-.738-.422-.757-.43q-1.113-.633-2.224-1.272l-.626-.358a315 315 0 0 1-1.596-.922l-.469-.27c-.686-.404-1.262-.798-1.809-1.375l2.334-1.364.725-.424a477 477 0 0 1 4.78-2.758l1.545-.88q.35-.198.71-.406l.628-.357a5.5 5.5 0 0 0 1.203-1.011l-.493-.28-3.176-1.81a192 192 0 0 1-4.212-2.458l-.738-.443q-.694-.416-1.381-.841l-.63-.377-.547-.335c-.655-.258-.983-.19-1.648.019-.554.296-1.083.6-1.617.928l-1.014.608-.567.34c-1.094.652-2.199 1.286-3.302 1.921q-.576.33-1.15.663-1.798 1.036-3.6 2.065a15.7 15.7 0 0 0 2.455 1.68l.781.443.41.23q1.06.596 2.117 1.198l.427.242c1.933 1.1 3.835 2.251 5.735 3.407-.543.603-1.127.968-1.83 1.368l-.711.407-.764.433-1.99 1.138a495 495 0 0 0-5.006 2.905l-1.624.949a14 14 0 0 0 2.339 1.598l.703.387.74.406a110 110 0 0 1 6.568 3.909c-.564.634-1.192 1.003-1.93 1.418l-.77.436-.41.23q-1.077.607-2.152 1.218l-.441.25a308 308 0 0 0-3.972 2.298 544 544 0 0 1-6.612 3.81 167 167 0 0 0-3.635 2.11q-.806.485-1.616.964-.566.341-1.128.689l-.69.41q-.299.179-.604.365c-.565.202-.565.202-1.125.053l-.565-.301c-.289-.15-.289-.15-.583-.305l-.623-.349-.7-.392-.738-.416-.758-.425a95 95 0 0 1-3.918-2.3 50 50 0 0 1-.937-.592c-.644-.399-1.062-.63-1.83-.577-.798.202-1.392.506-2.104.92l-.391.224q-.41.237-.82.477-.637.374-1.276.74a91 91 0 0 0-3.54 2.125l-.463.294q-.576.372-1.145.754c-.649.272-.649.272-1.259.181-1.087-.528-2.121-1.132-3.159-1.751l-1.438-.848-.758-.448c-1.343-.792-2.696-1.568-4.048-2.346l-2.587-1.491v-.45l.327-.177c2.75-1.492 5.464-3.04 8.163-4.623 1.432-.84 2.869-1.67 4.307-2.498l.726-.419 6.196-3.57.697-.402.612-.353c.58-.328.58-.328 1.138-.727.559-.281.559-.281 1.11-.253.674.231 1.257.53 1.878.878l.761.425.804.455.823.462a242 242 0 0 1 5.431 3.14l.39.23q.407.245.806.5c.733.493.733.493 1.578.582.591-.217 1.113-.498 1.662-.807l.701-.394.745-.422q.375-.213.763-.431a357 357 0 0 0 4.37-2.508l.434-.254c1.12-.662 2.2-1.38 3.278-2.109l-.493-.28q-6.296-3.587-12.546-7.256a375 375 0 0 0-9.121-5.193 18 18 0 0 1-1.027-.626c-.439-.3-.439-.3-1.113-.595-.938.238-1.738.63-2.578 1.104l-.697.392-.733.417-.756.426a281 281 0 0 0-5.243 3.042l-.4.234q-.407.243-.806.504c-1.024.644-1.024.644-1.704.579-.625-.186-1.108-.431-1.668-.765l-.638-.377-.682-.41-1.444-.853-.762-.453a341 341 0 0 0-3.657-2.122l-2.982-1.718v-.675l.456-.253c3.019-1.681 6.028-3.374 8.994-5.147l.733-.438q.76-.454 1.517-.912c-1.635-1.137-3.345-2.128-5.077-3.108l-.84-.478q-2.999-1.705-6.008-3.389v-.45l13.895-8.016 6.487-3.741 1.137-.655.697-.402.612-.353c.583-.327.583-.327 1.138-.741.559-.267.559-.267 1.11-.13l.574.313.631.339.69.398.779.446 1.67.963q.642.367 1.283.738 1.345.774 2.697 1.539l.658.373 1.217.687.544.309.471.266c.385.242.385.242.835.692a170 170 0 0 1-6.473 3.825 151 151 0 0 0-5.677 3.375l3.67 2.09c1.411.804 2.815 1.616 4.203 2.458l.735.443q.69.415 1.372.841l.628.377q.269.164.543.335c.731.275 1.15.186 1.899-.019.61-.276.61-.276 1.206-.642l.695-.406.743-.443.781-.458 1.621-.953c1.238-.73 2.484-1.444 3.729-2.16l1.462-.844 2.925-1.688.733-.422q.724-.42 1.45-.836a801 801 0 0 0 3.44-1.992l1.634-.95q.58-.338 1.159-.678l.704-.408.623-.364c.495-.256.495-.256.945-.256v-.45l-.487-.184a17 17 0 0 1-1.844-.92l-.7-.392-.738-.416-.759-.427a281 281 0 0 1-5.65-3.277 132 132 0 0 0-1.972-1.134V56l.456-.253c3.65-2.033 7.292-4.076 10.842-6.28.402-.217.402-.217.852-.217v-.45l-.573-.166c-.869-.317-1.623-.747-2.408-1.226l-1.007-.601-.563-.337a351 351 0 0 0-3.3-1.93l-1.15-.67c-1.436-.84-1.436-.84-2.943-1.54-.656-.28-.656-.28-.971-.598-.422-.419-.848-.665-1.368-.952l-.618-.345-.666-.368-2.133-1.194a295 295 0 0 1-3.731-2.153l-.702-.409c-1.627-.95-1.627-.95-2.392-1.461v-.45l.327-.177a288 288 0 0 0 8.33-4.714l.628-.365q.627-.375 1.235-.779l.595-.387.523-.355c.512-.198.512-.198 1.064-.048"/><path fill="#AEF083" d="M102.8 56.225c.785.117 1.383.47 2.062.867l.701.407.753.442 2.397 1.397q1.866 1.084 3.736 2.16l1.877 1.082.63.364.444.256v.45l-.696.381c-3.564 1.963-7.1 3.985-10.559 6.127-.445.242-.445.242-.895.242v.45l.598.183c.723.257 1.327.56 1.99.946l.71.413.752.44.776.452q1.188.693 2.374 1.391l.757.445q2.1 1.236 4.193 2.48c-.599.639-1.164 1.095-1.93 1.517l-.616.342-.66.363-1.392.776-.73.407a285 285 0 0 0-3.742 2.15l-.708.409-.654.38-.578.337c-.49.286-.49.286-.915.744l.493.28 3.176 1.81c1.413.805 2.82 1.618 4.212 2.458l.738.443q.694.416 1.381.841l.63.377.547.335c.667.263.97.203 1.648-.019.598-.288.598-.288 1.208-.657l.709-.415.755-.447.779-.455 1.602-.936a363 363 0 0 1 3.694-2.124l.655-.377.609-.346.53-.303c.487-.241.842-.413 1.384-.465.533.214.533.214 1.129.556l.676.384.726.424.754.431q1.172.674 2.34 1.355l.734.427q1.724 1.002 3.443 2.01a166 166 0 0 0 3.023 1.726c3.948 2.203 7.83 4.524 11.7 6.862a16 16 0 0 1-2.34 1.623l-.713.408-.758.43-1.577.9-.401.228q-1.328.763-2.633 1.566l-.677.412q-.634.388-1.264.784-.284.171-.575.35l-.498.31c-.644.249-.96.173-1.614-.036-.579-.285-.579-.285-1.2-.65l-.705-.41-.753-.445-.778-.452a239 239 0 0 1-3.953-2.35l-.735-.442q-.695-.419-1.384-.847l-.635-.38-.55-.339c-.734-.277-1.156-.19-1.907.015-.565.254-.565.254-1.107.592l-.634.376-.678.41-1.459.867-.76.453c-1.223.725-2.455 1.432-3.687 2.14q-2.502 1.439-4.994 2.896a599 599 0 0 1-6.228 3.6l-.673.386-.619.35-.546.311c-.44.219-.44.219-.89.219v.45l.487.184c.644.269 1.235.578 1.844.92.23.13.461.258.7.392l.738.416.759.427q2.645 1.49 5.254 3.042l.4.233q.409.246.806.513c.452.303.452.303 1.162.623.902-.266 1.69-.75 2.502-1.218l.397-.227 1.25-.72.815-.47.407-.233q.408-.235.817-.468a75 75 0 0 0 2.097-1.241l.424-.257a139 139 0 0 0 1.16-.71c.838-.363 1.19-.346 2.056-.081.63.3.63.3 1.277.681l.728.425.765.455.788.459c1.17.682 2.332 1.375 3.48 2.095l.523.324q.47.291.932.597c.645.4 1.045.607 1.808.506a53 53 0 0 0 3.143-1.76l1.462-.861.761-.45a450 450 0 0 1 3.627-2.105l.73-.422q2.513-1.447 5.03-2.88a1008 1008 0 0 0 7.282-4.188l.635-.37.557-.323c.474-.277.474-.277.897-.733l-.466-.267a471 471 0 0 1-9.884-5.808c.639-.69 1.26-1.147 2.084-1.598l.701-.387.745-.406q.764-.42 1.526-.843l.757-.419c1.395-.778 2.766-1.596 4.14-2.413.653-.385 1.312-.76 1.972-1.134a14 14 0 0 0-2.291-1.574l-.682-.377-.725-.397a366 366 0 0 1-5.879-3.32q-.32-.18-.648-.367l-.59-.345-.52-.3-.365-.295v-.675l.39-.219c5.479-2.953 5.479-2.953 10.747-6.248.563-.283.563-.283 1.12-.253.642.22 1.182.501 1.768.845l.706.41.752.445 1.974 1.158q1.396.818 2.804 1.613l.754.43q.717.408 1.436.81l.648.373.573.324.403.312v.675c-.403.312-.403.312-.976.636l-.648.372-.71.398-.724.414q-.768.439-1.537.874a573 573 0 0 0-3.65 2.088q-.578.333-1.159.663l-.712.409-.632.36c-.523.297-.523.297-.952.761l.696.381a289 289 0 0 1 6.98 3.973c1.683.985 1.683.985 2.449 1.496.895-.076 1.557-.418 2.33-.857l.7-.394.739-.422.762-.432q2.615-1.486 5.202-3.023 1.153-.681 2.319-1.34a419 419 0 0 0 4.204-2.434q5.732-3.347 11.499-6.635 3.292-1.875 6.572-3.77l.69-.397 1.186-.687a5.8 5.8 0 0 0 1.147-.984l-.696-.381a285 285 0 0 1-6.96-3.973l-.667-.392q-.293-.171-.593-.35a24 24 0 0 0-1.434-.754v-.45l1.074-.62.71-.41 1.565-.901a528 528 0 0 0 4.95-2.877q.76-.445 1.518-.893l.7-.407q.3-.178.611-.36c.598-.295 1.031-.466 1.697-.507.572.23.572.23 1.184.598l.699.411.747.454 1.168.692 1.22.727c.83.494 1.665.975 2.503 1.454l.407.233 1.949 1.112.705.405.623.357c.495.307.495.307.945.757l-.327.177a282 282 0 0 0-8.163 4.623 655 655 0 0 1-5.043 2.923l-1.478.851L209 81.313l-1.463.843q-.359.209-.73.422l-14.626 8.438-5.134 2.96a1329 1329 0 0 0-7.044 4.085 642 642 0 0 1-6.28 3.619 537 537 0 0 0-5.448 3.145 572 572 0 0 1-5.85 3.375 667 667 0 0 0-6.54 3.776 1257 1257 0 0 1-7.121 4.123l-3.664 2.114-1.463.843q-.359.209-.73.422l-2.927 1.688-4.844 2.794-2.68 1.543-.687.396-.66.376q-.637.377-1.255.788c-1.453.957-1.453.957-2.343.855l-.636-.368-.763-.417-.868-.525-1.014-.606-.563-.336c-1.189-.705-2.387-1.392-3.584-2.082l-.774-.446a816 816 0 0 0-3.712-2.127 441 441 0 0 1-4.078-2.363 1500 1500 0 0 0-7.98-4.622l-4.394-2.535-3.673-2.118q-3.529-2.03-7.044-4.084a707 707 0 0 0-6.65-3.831q-3.759-2.147-7.504-4.315l-3.649-2.106-1.463-.843q-.359-.209-.73-.422l-8.045-4.64-.73-.423-5.135-2.96a1568 1568 0 0 1-7.199-4.17l-.614-.358c-1.931-1.127-3.857-2.262-5.784-3.396V92c-1.821-.91-3.582-1.835-5.33-2.869l-.703-.413a916 916 0 0 1-4.747-2.808c-.603-.358-1.153-.663-1.82-.885V70.4l5.625-3.15c1.24-.733 2.475-1.467 3.704-2.218q.564-.344 1.13-.683l.645-.393c.613-.315 1.032-.496 1.721-.531.613.251.613.251 1.282.647l.76.442.813.486.835.49q.868.506 1.733 1.018c1.262.746 2.534 1.475 3.806 2.205q1.461.841 2.921 1.687v.45l-.429.231a250 250 0 0 0-5.252 2.947L42.95 76.7c.561.629 1.182.997 1.913 1.41l1.17.661q.855.481 1.708.966l.883.5a534 534 0 0 1 4.254 2.44l1.45.837.723.418 3.649 2.105 2.194 1.266 8.776 5.063q.725.42 1.45.836 1.718.988 3.429 1.987l1.62.943 1.144.67.7.406.616.36c.693.36.693.36 1.446.507.52-.19.52-.19 1.046-.515l.623-.357.665-.394.686-.396q1.08-.628 2.155-1.263l.727-.427q2.115-1.24 4.223-2.498c-.57-.644-1.214-1.014-1.96-1.433l-.385-.218-.817-.46q-1.07-.601-2.135-1.21c-.214-.12-.214-.12-.431-.244a299 299 0 0 1-3.89-2.243l-.576-.33-.518-.307-.45-.263-.313-.267v-.675l7.351-4.24q3.86-2.222 7.706-4.469 2.99-1.743 5.989-3.467l.704-.406.621-.357q.856-.498 1.704-1.011a166 166 0 0 0-6.09-3.614l-.801-.456-.4-.227-1.168-.666q-.78-.445-1.563-.883l-.749-.425-.674-.378-.48-.326v-.45l7.118-4.104 2.778-1.597.708-.407.626-.36c.45-.245.45-.245.695-.507"/><path fill="#186A0D" d="M227.675 70.625v43.2l-2.7 1.35q-1.309.74-2.602 1.505l-1.408.827-.702.413a677 677 0 0 1-3.149 1.84q-.27.156-.548.32c-1.24.72-1.24.72-1.491.72V92.225c-4.063 2.29-4.063 2.29-8.1 4.627l-1.322.774-.56.33c-.593.344-.593.344-1.012.475-.519.194-.794.344-1.156.769-.181.905-.157 1.787-.119 2.707q.027.71.031 1.42.024 2.018.093 4.034.04 1.235.043 2.472.006.469.03.937c.05 1.007.038 1.876-.303 2.83-.89.826-1.824 1.286-2.925 1.8a91 91 0 0 0-1.447.843l-1.45.83c-1.809 1.038-3.614 2.079-5.386 3.179-.895.548-.895.548-1.392.548l.014.538q.06 2.512.09 5.025.016 1.29.049 2.583.032 1.247.04 2.494.004.476.021.95c.082 2.473.082 2.473-.633 3.287a10 10 0 0 1-1.606.873l-.686.407-.608.335-.69.383-.716.394c-1.88 1.043-3.75 2.1-5.596 3.201-.677.403-1.349.778-2.054 1.13l-.225-14.175-5.4 3.15a1280 1280 0 0 1-4.372 2.523l-.74.426-4.384 2.53a1669 1669 0 0 1-5.023 2.89l-1.13.649c-1.38.79-1.38.79-2.713 1.653-.538.354-.538.354-.988.354v-14.175c-4.063 2.29-4.063 2.29-8.1 4.627l-1.322.774-.56.33c-.593.344-.593.344-1.012.475-.519.194-.794.344-1.156.769-.181.905-.157 1.787-.119 2.707q.027.71.031 1.42.024 2.018.093 4.034.04 1.235.043 2.472.006.469.03.937c.05 1.007.037 1.876-.303 2.83-.888.826-1.831 1.294-2.925 1.8q-.437.248-.868.51l-.7.398-.393.223-1.203.683-2.371 1.348q-.777.443-1.546.9l-.737.437-.658.394c-.524.282-.524.282-.974.282q-.103-5.542-.152-11.084a479 479 0 0 0-.069-5.147q-.044-2.243-.054-4.487-.004-1.187-.034-2.375c-.125-4.809-.125-4.809.588-5.915.766-.747 1.635-1.041 2.646-1.367q.689-.382 1.36-.795l1.382-.794 2.33-1.339q1.852-1.065 3.703-2.135l2.194-1.265 8.775-5.063 5.134-2.96q3.529-2.032 7.044-4.085a642 642 0 0 1 6.28-3.619 537 537 0 0 0 5.448-3.145 572 572 0 0 1 5.85-3.375 667 667 0 0 0 6.54-3.776c2.368-1.385 4.745-2.754 7.121-4.123l3.664-2.114 1.463-.843q.359-.209.73-.422l13.894-8.016.732-.422 8.202-4.732q1.179-.679 2.355-1.364l1.572-.913c.527-.275.527-.275.977-.275"/><path fill="#6A442E" d="M40.925 121.025c.987.247 1.768.671 2.644 1.167l.526.296c1.542.87 3.075 1.755 4.607 2.643l.68.394.656.383.576.335.661.407.52.231c.623.319 1.04.593 1.505 1.119.284 1.09.236 2.165.198 3.282q-.006.48-.009.963-.014 1.261-.05 2.523c-.02.86-.03 1.72-.04 2.58a405 405 0 0 1-.099 5.052l.527.207c.619.251 1.182.547 1.764.873l.682.381.725.41.749.42a263 263 0 0 1 5.699 3.314l.581.347.506.303c.446.258.906.49 1.367.72V164l1.125.45q.618.334 1.223.687l.717.416.76.444 2.373 1.377q1.73 1.004 3.463 1.998l.596.344.55.315.475.274c.448.25.448.25 1.093.445V142.4a552 552 0 0 1 5.941 3.282q2.67 1.498 5.301 3.065c.372.22.747.435 1.133.628V135.2c.983.393 1.842.85 2.742 1.392a434 434 0 0 0 5.274 3.08l.76.438q1.797 1.035 3.599 2.065V128c.811.324 1.47.627 2.21 1.064l.638.375.682.403 2.207 1.297a343 343 0 0 0 2.844 1.646l1.968 1.13.714.41.635.365c.477.285.477.285.702.51.024.373.033.747.036 1.12l.006.736.004.813.007.852.015 2.317.017 2.42q.018 2.292.031 4.585l.036 5.219q.039 5.37.073 10.738l.45.254 2.036 1.15.706.398a334 334 0 0 1 4.908 2.825l1.322.774.56.33q1.082.625 2.168 1.244v28.8c-2.786-1.52-2.786-1.52-3.89-2.15l-.745-.427-.78-.446-.83-.475a2193 2193 0 0 1-7.647-4.404l-2.265-1.305a1259 1259 0 0 1-6.568-3.8l-.473-.275c-.576-.338-1.078-.644-1.552-1.118-.054-.592-.054-.592-.051-1.352v-.86l.007-.933.002-.951q.003-1.252.011-2.506.007-1.278.009-2.556.008-2.508.022-5.017l1.944.967a41 41 0 0 1 3.02 1.663l.958.571.507.302c1.034.61 2.077 1.204 3.12 1.799l.626.357c.978.564.978.564 1.975 1.091.107-1.79.181-3.577.215-5.37.017-.833.044-1.663.097-2.494.209-3.216.209-3.216-.537-6.311-1.367-1.545-3.263-2.316-5.14-3.079-.902-.376-1.716-.844-2.545-1.356l-.737-.425-1.445-.835-.715-.413-.623-.36q-.465-.266-.945-.507v14.175a552 552 0 0 1-5.203-2.869l-.738-.413q-2.67-1.498-5.301-3.065c-.372-.22-.747-.435-1.133-.628v14.175c-2.53-1.265-2.53-1.265-3.485-1.829l-.652-.383-.658-.39c-2.514-1.482-5.046-2.925-7.58-4.373v13.95c-1.098-.22-1.812-.582-2.742-1.153l-1.014-.608-.567-.34c-1.094-.652-2.199-1.286-3.302-1.921q-.576-.33-1.15-.663-1.799-1.036-3.6-2.065v14.175a15.4 15.4 0 0 1-2.226-1.072l-.644-.378-.688-.406-2.201-1.295q-1.152-.675-2.307-1.342l-.746-.432-1.427-.825-.65-.378-.575-.332c-.461-.29-.461-.29-.911-.74-.055-.505-.055-.505-.054-1.147l-.002-.737.005-.81v-.852q0-1.158.005-2.315.004-1.209.004-2.418.002-2.29.01-4.58.007-2.607.01-5.214.006-5.363.022-10.727l-.64-.207a9.6 9.6 0 0 1-1.85-.873l-.648-.381-.687-.41-.717-.422q-1.105-.651-2.208-1.307l-2.026-1.2-1.22-.726a101 101 0 0 0-3.536-1.996c-1.153-.633-2.29-1.296-3.427-1.956l-2.31-1.336a937 937 0 0 0-3.456-1.983l-.602-.345-.551-.314-.48-.274a20 20 0 0 0-.842-.445V128c1.116.372 1.994.79 2.981 1.392l1.007.602.563.337c1.224.724 2.457 1.431 3.69 2.14l.76.439q1.797 1.036 3.599 2.065z"/><path fill="#6BC248" d="M40.925 77.825c.84.336 1.537.664 2.309 1.114l.697.404.749.437 2.413 1.401q1.864 1.081 3.732 2.157l2.194 1.265 19.744 11.39.73.423 5.135 2.96q3.916 2.256 7.817 4.536a505 505 0 0 0 4.899 2.819c1.466.836 2.925 1.685 4.383 2.538a595 595 0 0 0 5.948 3.431 662 662 0 0 1 6.62 3.824q2.124 1.242 4.264 2.462c3.742 2.133 7.472 4.288 11.194 6.455l.666.387.63.367.544.317.607.363.446.138c.62.25.93.463 1.354.987.28 1.351.227 2.698.204 4.073l.001 1.27q-.002 1.725-.022 3.449c-.012 1.201-.013 2.403-.015 3.604q-.01 3.413-.038 6.825c-.02 2.59-.03 5.18-.04 7.77a4001 4001 0 0 1-.09 15.984 18 18 0 0 1-2.33-1.104l-.7-.392-.739-.417-.76-.427c-4.144-2.338-4.144-2.338-5.606-3.253-.435-.267-.435-.267-.909-.456-.542-.257-.916-.49-1.331-.926-.244-.907-.176-1.783-.125-2.714l.023-.835q.025-.896.063-1.794c.038-.948.058-1.897.073-2.847.047-2.7.105-5.398.214-8.096q.09-2.234.107-4.473c.007-.789.026-1.574.073-2.361.177-2.922.177-2.922-.653-5.68-1.529-1.54-3.503-2.383-5.472-3.226-1.36-.594-2.611-1.381-3.88-2.146l-1.322-.772a34 34 0 0 1-1.701-1.056v14.175a19 19 0 0 1-2.291-1.08l-.682-.381-.725-.41-.748-.42c-5.867-3.31-5.867-3.31-7.929-4.684v14.175c-.968-.323-1.628-.571-2.473-1.072l-.642-.378-.682-.406-1.44-.85-.75-.444a394 394 0 0 0-2.31-1.35l-.75-.436-1.437-.834-.653-.38-.577-.335c-.436-.265-.436-.265-.661-.49a28 28 0 0 1-.026-1.347v-.874l.004-.951.001-.968q0-1.275.006-2.55l.004-2.602q.003-2.554.011-5.108c1.166.579 2.296 1.22 3.431 1.856l.747.418a411 411 0 0 1 7.29 4.211q.446.258.907.49c.096-1.794.163-3.585.192-5.381.014-.835.039-1.667.087-2.5.31-3.66.31-3.66-1.01-6.89-1.285-1.033-2.723-1.685-4.247-2.29-.807-.33-1.507-.734-2.248-1.191l-2.77-1.596-.74-.426-4.39-2.533-3.733-2.151c-4.257-2.453-4.257-2.453-6.27-3.645a271 271 0 0 0-5.024-2.877 325 325 0 0 1-4.652-2.678 613 613 0 0 0-6.59-3.8c-2.784-1.586-5.555-3.191-8.33-4.792V106.4c-3.082-1.541-3.082-1.541-4.444-2.362l-.968-.576-.528-.315a652 652 0 0 0-3.482-2.049l-.718-.422-.672-.394-.601-.353c-.524-.305-.524-.305-1.187-.504v-14.4c.987.247 1.768.671 2.644 1.167l.526.295c1.774 1 3.532 2.027 5.287 3.058l.656.385.576.339c.89.512 1.789 1.007 2.686 1.506z"/><path fill="#2A150B" d="M215.075 92.225q.119 5.535.175 11.072c.017 1.714.04 3.428.08 5.142q.05 2.24.063 4.483c.004.791.014 1.581.039 2.372.144 4.8.144 4.8-.68 5.961-.776.707-1.631 1.089-2.62 1.414-.702.254-1.302.64-1.938 1.029l-1.447.829c-3.189 1.611-3.189 1.611-6.047 3.698q-.017.65 0 1.298l.015.843.009.453c.016.958.017 1.917.021 2.876q.005 1.262.034 2.525.03 1.222.021 2.443.002.466.02.928c.034 1.002.006 1.865-.345 2.809-.89.821-1.833 1.293-2.925 1.8q-.436.247-.864.506l-.697.394-.39.221-1.597.904-1.191.675-.697.394-.38.23c-.484.276-.484.276-1.22.618-1.545.757-1.545.757-2.453 2.166-.096.864-.101 1.702-.07 2.569l-.003.945a93 93 0 0 0 .032 2.473c.016.843.016 1.686.017 2.53q.009 2.475.063 4.95l2.784-1.59.506-.288a862 862 0 0 0 4.723-2.713l.41-.237a1088 1088 0 0 0 2.647-1.535l.617-.36c.463-.252.463-.252.688-.252q.04 2.749.058 5.498.008 1.276.027 2.553.018 1.231.022 2.464.003.47.012.94.01.659.009 1.317l.007.757c-.135.646-.135.646-.673 1.164-.537.35-1.07.682-1.631.991l-.61.34-.652.359a190 190 0 0 0-6.717 3.94l-.685.417-.607.372c-.485.263-.485.263-.935.263V164l-5.4 3.15q-1.594.93-3.192 1.856l-.743.434-.715.414-.621.36c-.557.3-1.115.531-1.704.761q-.071-5.554-.105-11.107a696 696 0 0 0-.048-5.158q-.03-2.247-.038-4.495-.002-1.19-.023-2.38c-.016-.886-.017-1.772-.016-2.659l-.022-.795c.02-1.742.02-1.742.695-2.438a11.6 11.6 0 0 1 1.582-.893l.675-.4.595-.326.688-.38.7-.385a68 68 0 0 0 2.101-1.19c.664-.383 1.337-.653 2.054-.923 1.295-.54 2.472-1.084 3.312-2.246.31-1.095.323-2.165.283-3.295l-.016-.466a75 75 0 0 0-.286-3.89c-.463-4.88-.463-4.88.244-6.749 1.356-1.557 3.27-2.325 5.148-3.084.865-.359 1.62-.793 2.415-1.286l.666-.388.616-.36.672-.393c.867-.506.867-.506 1.733-1.014l.591-.273c.596-.354.596-.354.645-1.01l-.041-.744-.035-.845-.026-.452q-.034-.704-.05-1.409c-.03-1.336-.064-2.671-.142-4.006-.303-5.432-.303-5.432.86-6.91 1.161-.976 2.475-1.558 3.88-2.102.835-.336 1.578-.777 2.342-1.25a1383 1383 0 0 1 2.91-1.673l.63-.361q.604-.351 1.196-.721c.515-.294.515-.294.965-.294"/><path fill="#966645" d="M28.325 142.4c.995.332 1.693.608 2.572 1.121l.702.408.748.44.784.456q1.005.585 2.008 1.174l1.782 1.039q2.675 1.557 5.344 3.124a448 448 0 0 0 9.076 5.172q1.094.615 2.184 1.241.01 6.75.014 13.5v.5c.006 9.735-.007 19.467-.239 29.2-.857-.32-1.63-.715-2.423-1.17l-.766-.44-1.67-.96a879 879 0 0 1-5.955-3.456c-2.36-1.38-4.73-2.745-7.099-4.11a2730 2730 0 0 1-4.79-2.766l-.704-.406-.623-.36q-.465-.266-.945-.507z"/><path fill="#966645" d="M103.025 156.8c.968.323 1.628.571 2.473 1.072l.642.378.682.406 2.19 1.294a394 394 0 0 0 3.06 1.786l1.437.834.653.38.577.335c.436.265.436.265.661.49.021.442.026.884.026 1.327v.86l-.004.936-.001.952q0 1.256-.006 2.511l-.004 2.561q-.003 2.514-.011 5.028c-.895-.29-1.673-.598-2.481-1.08l-.654-.386-.676-.404c-2.681-1.594-5.396-3.126-8.114-4.655a264 264 0 0 0-.152 5.363c-.015.831-.035 1.66-.069 2.491q-.047 1.203-.057 2.407c-.007.453-.03.906-.053 1.358-.001.867.033 1.515.331 2.331.889.82 1.835 1.293 2.925 1.8q.436.247.864.506l.697.394.39.221 1.199.679 1.59.9.696.394.38.23c.518.304.518.304 1.223.618 2.017.99 2.017.99 2.441 2.166.084.865.075 1.703.03 2.569l-.012.945c-.011.825-.04 1.648-.072 2.473-.03.843-.043 1.686-.058 2.53q-.048 2.475-.143 4.95a13.3 13.3 0 0 1-2.694-1.187l-.384-.22-1.211-.702-1.569-.906-1.792-1.035-4.725-2.7v13.95c-1.027-.342-1.77-.65-2.686-1.179l-.78-.447-.809-.47q-.578-.332-1.16-.663-.406-.237-.809-.485a18 18 0 0 0-2.71-1.338c-1.384-.602-2.679-1.2-3.646-2.393-.747-2.038-.502-4.29-.353-6.42.05-.787.069-1.576.092-2.365.141-4.355.141-4.355.486-5.39.818.31 1.568.676 2.33 1.104l.7.392.739.417.759.426a253 253 0 0 1 5.606 3.252c.669.393 1.343.775 2.016 1.159.096-1.794.163-3.585.192-5.381.014-.835.039-1.667.087-2.5.31-3.657.31-3.657-1.005-6.888-1.28-1.031-2.717-1.677-4.236-2.283-.867-.357-1.643-.811-2.438-1.303l-1.431-.826-.75-.434-.716-.414-.625-.36a34 34 0 0 0-1.453-.761v13.95c-1-.333-1.698-.612-2.58-1.13l-.715-.416-.74-.437c-2.765-1.618-5.55-3.19-8.34-4.767v13.95a6.7 6.7 0 0 1-1.93-.776l-.615-.35q-.327-.186-.661-.379l-.684-.39q-1.094-.625-2.185-1.255l-.757-.436q-1.106-.638-2.21-1.28l-.696-.403-.65-.379-.571-.333-.516-.319q-.234-.135-.476-.271c-.424-.404-.424-.404-.532-1.023l.006-.759v-.86l.014-.929.004-.95q.006-1.25.022-2.5.013-1.276.018-2.552.015-2.503.044-5.006c.8.314 1.541.66 2.291 1.08l.682.381.725.41.748.42a237 237 0 0 1 5.72 3.334l.583.349.51.307c.465.275.465.275 1.116.469V171.2c.694.278 1.291.52 1.931.875l.459.255.493.276.522.292c2.204 1.236 4.382 2.517 6.56 3.796q1.09.633 2.185 1.256L90.65 164c.968.323 1.628.571 2.473 1.072l.652.383.672.401 1.292.763 1.661.981 5.4 3.15z"/><path fill="#89DE5E" d="m53.3 56 .225.45q.558.236 1.125.45.587.306 1.166.63l.681.38.726.41.759.427a333 333 0 0 1 6.61 3.852c2.852 1.693 5.716 3.363 8.62 4.964 2.358 1.302 4.678 2.668 7.003 4.025l.662.387 1.348.788a533 533 0 0 0 4.566 2.638q.78.45 1.564.894l.711.409.632.36c.502.311.502.311.952.761a674 674 0 0 1-7.59 4.42 222 222 0 0 0-4.335 2.555c.547.608 1.138.974 1.847 1.376l.717.41.769.436.785.45q1.581.908 3.167 1.811 1.042.596 2.08 1.198.32.18.646.366l.587.34.515.296.362.292v.675c-.42.323-.42.323-1.015.66l-.666.383-.724.405-.733.418-1.512.857q-1.07.612-2.129 1.243l-.647.38q-.608.36-1.213.723l-.554.323-.482.286c-.566.216-.788.163-1.35-.053a20 20 0 0 1-1.03-.551l-.614-.348-.662-.38-.696-.397a582 582 0 0 1-5.472-3.174A524 524 0 0 0 65.45 90.2a666 666 0 0 1-6.54-3.776 912 912 0 0 0-4.907-2.847 6982 6982 0 0 0-6.823-3.93l-1.34-.776q-.651-.378-1.308-.744l-.626-.357-.559-.314-.397-.306v-.675l.404-.226 1.902-1.068.703-.395a147 147 0 0 0 5.269-3.124l.529-.324.46-.287c.408-.201.408-.201 1.083-.201v-.45l-.491-.187c-.62-.257-1.19-.55-1.777-.877l-.671-.375-.717-.403-.742-.416c-2.69-1.519-5.337-3.11-7.977-4.717.509-.557 1.024-.906 1.683-1.27l.618-.345.666-.368 2.135-1.195c1.24-.7 2.471-1.418 3.701-2.138l.69-.403Q51.864 56.862 53.3 56"/><path fill="#AD7A54" d="M40.925 106.625c.995.332 1.693.608 2.572 1.121l.712.414.738.434.69.401c.371.217.743.434 1.107.662.898.553 1.796.967 2.777 1.357 1.51.65 2.939 1.297 4.004 2.586.754 2.122.437 4.551.252 6.76a84 84 0 0 0-.26 4.381l-.014.463c-.05 1.731-.05 1.731.577 3.297.874.804 1.886 1.205 3 1.574.705.25 1.31.622 1.943 1.014l2.868 1.653.77.443 3.689 2.127 6.716 3.876q2.6 1.5 5.209 2.987v28.575c-1.026-.205-1.557-.421-2.439-.932l-.383-.22q-.609-.35-1.214-.704l-1.164-.669a34 34 0 0 1-.813-.49 16 16 0 0 0-2.717-1.322c-1.407-.592-2.694-1.182-3.645-2.413-.754-2.22-.49-4.677-.34-6.98.051-.863.073-1.726.098-2.59.053-1.686.137-3.37.242-5.055l-.64-.206c-.683-.235-1.237-.514-1.857-.882l-.652-.385-.69-.411-2.184-1.29c-1.308-.767-2.628-1.516-3.947-2.266l-.551-.314-.478-.272-.476-.274-.586-.27c-.539-.405-.539-.405-.66-1.02l.026-.751.02-.854.018-.456q.024-.71.03-1.42c.017-1.346.042-2.69.09-4.036.29-3.504.29-3.504-.583-6.753-.753-.74-1.629-1.075-2.624-1.384-.729-.25-1.33-.64-1.986-1.045l-1.465-.84a175 175 0 0 1-4.647-2.737c-.478-.29-.478-.29-1.133-.484v13.95c-.938-.313-1.554-.528-2.359-1.015l-.573-.344-.612-.37-1.315-.787-.702-.42c-1.308-.777-2.627-1.536-3.945-2.295l-.775-.447c-1.147-.672-1.147-.672-2.319-1.297v-14.4c.879.352 1.624.712 2.439 1.179l.383.219.808.463q.587.339 1.175.674c2.538 1.456 5.05 2.951 7.57 4.44z"/><path fill="#135B0B" d="M152.975 113.825v13.95c3.916-2.206 3.916-2.206 7.805-4.458 2.098-1.23 4.206-2.44 6.318-3.644a577 577 0 0 0 6.374-3.687q1.452-.854 2.914-1.687l.488-.278c.401-.196.401-.196.851-.196q.071 2.738.105 5.475.014 1.271.048 2.542.032 1.227.04 2.455.004.468.021.935c.082 2.434.082 2.434-.635 3.243a10 10 0 0 1-1.604.875l-.66.392-.578.318-.665.368-.699.385a313 313 0 0 0-6.377 3.64 829 829 0 0 1-5.7 3.304 549 549 0 0 0-4.494 2.614 690 690 0 0 0-2.06 1.212l-.563.33c-.479.262-.479.262-1.154.487v-14.175c-4.063 2.29-4.063 2.29-8.1 4.627l-1.322.774-.56.33c-.593.344-.593.344-1.012.475-.519.194-.794.344-1.156.769-.181.905-.157 1.787-.119 2.707q.027.71.031 1.42.024 2.018.093 4.034.04 1.235.043 2.472.006.469.03.937c.05 1.007.037 1.876-.303 2.83-.888.826-1.831 1.294-2.925 1.8q-.437.248-.868.51l-.7.398-.393.223-1.203.683-2.371 1.348q-.777.443-1.546.9l-.737.437-.658.394c-.524.282-.524.282-.974.282q-.103-5.542-.152-11.084a479 479 0 0 0-.069-5.147q-.044-2.243-.054-4.487-.004-1.187-.034-2.375c-.125-4.809-.125-4.809.588-5.915.766-.747 1.635-1.041 2.646-1.367q.689-.382 1.36-.795l1.382-.794 2.33-1.339q1.852-1.065 3.703-2.135l4.459-2.57.764-.44q.744-.43 1.49-.858a231 231 0 0 0 3.256-1.906l.54-.323q.486-.291.97-.587c1.047-.628 1.047-.628 1.796-.628"/><path fill="#7F5438" d="M115.625 192.8c1 .333 1.704.614 2.588 1.13l.71.411.752.442.776.452q.993.578 1.984 1.16.57.337 1.143.671l2.074 1.218q.314.187.64.377l.584.346.512.303c.387.24.387.24.612.465.022.558.03 1.11.027 1.667v.535q.001.895-.001 1.79v1.276q0 1.74-.003 3.478l-.002 3.63q-.001 3.44-.005 6.88l-.005 7.831q-.003 8.056-.011 16.113l-1.179-.643-.663-.362a298 298 0 0 1-7.925-4.486 516 516 0 0 0-5.308-3.059 664 664 0 0 1-8.55-4.95l-.586-.274c-.539-.401-.539-.401-.681-.996l-.003-.724-.011-.821.005-.889-.009-.912q-.01-1.2-.008-2.402-.003-1.69-.02-3.38-.006-.9-.006-1.8l-.003-.825v-.725a9.4 9.4 0 0 0-.253-1.777h.45V200c.973.324 1.633.575 2.481 1.08l.646.381.684.41 1.442.85.746.44c1.209.707 2.428 1.396 3.648 2.084l.672.38c1.019.58 1.019.58 2.056 1.125z"/><path fill="#95E669" d="m128.325 56.362.575.313.631.339.69.398.779.446 1.67.963q.642.367 1.283.738 1.345.774 2.697 1.539l.658.373 1.217.687.544.309.471.266c.385.242.385.242.835.692a170 170 0 0 1-6.473 3.825 151 151 0 0 0-5.677 3.375l.493.28A1115 1115 0 0 1 140.6 77.77c2.7 1.583 5.406 3.152 8.137 4.682q2.026 1.14 4.013 2.348c-.543.603-1.127.968-1.83 1.368l-.71.407-.765.433-1.996 1.137q-1.396.8-2.773 1.636l-.737.442q-.699.42-1.392.848l-.637.38-.554.339c-.672.266-.974.208-1.656-.015q-.614-.295-1.206-.632l-.699-.394-.739-.422-.76-.43q-2.19-1.244-4.358-2.524l-.465-.273a65 65 0 0 1-1.858-1.128l-.532-.328-.418-.271c-.84-.235-1.649.256-2.399.632l-.619.349-.697.392-.733.416-.756.427a281 281 0 0 0-5.243 3.042l-.4.234q-.408.243-.806.504c-1.024.644-1.024.644-1.704.579-.625-.186-1.108-.431-1.668-.765l-.638-.377-.682-.41-1.444-.853-.762-.453a341 341 0 0 0-3.657-2.122l-2.982-1.718v-.675l.456-.253c3.019-1.681 6.028-3.374 8.994-5.147l.733-.438q.76-.454 1.517-.912c-1.635-1.137-3.345-2.128-5.077-3.108l-.84-.478q-2.999-1.705-6.008-3.389v-.45l13.895-8.016 6.487-3.741 1.137-.655.697-.402.612-.353c.583-.327.583-.327 1.138-.741.559-.267.559-.267 1.11-.13"/><path fill="#9AE96E" d="m103.025 84.8 5.931 3.387 2.76 1.574q.765.442 1.516.91l.718.442.634.402c.715.315.985.289 1.716.035.598-.288.598-.288 1.208-.657l.709-.415.755-.447.779-.455 1.602-.936a363 363 0 0 1 3.694-2.124l.655-.377.609-.346.53-.303c.487-.241.842-.413 1.384-.465.533.214.533.214 1.129.556l.676.384.726.424.754.431q1.172.674 2.34 1.355l.734.427q1.724 1.002 3.443 2.01a166 166 0 0 0 3.023 1.725c3.948 2.204 7.83 4.525 11.7 6.863a16 16 0 0 1-2.34 1.623l-.713.408-.758.43-1.577.9-.401.228q-1.328.763-2.633 1.566l-.677.412q-.634.388-1.264.784-.284.171-.575.35l-.498.31c-.644.249-.96.173-1.614-.036-.579-.285-.579-.285-1.2-.65l-.705-.41-.753-.445-.778-.452a239 239 0 0 1-3.953-2.35l-.735-.442q-.695-.419-1.384-.847l-.635-.38-.55-.339c-.734-.277-1.156-.19-1.907.015-.565.254-.565.254-1.107.592l-.634.376-.678.41-1.459.867-.76.453c-1.223.725-2.455 1.432-3.687 2.14a904 904 0 0 0-5.667 3.29 497 497 0 0 1-5.54 3.192l-.669.38-.616.349-.542.307c-.466.244-.466.244-1.141.469-.404-.152-.404-.152-.86-.409l-.525-.291-.57-.327-.594-.333a383 383 0 0 1-6.732-3.9 123 123 0 0 0-1.279-.743l-.625-.363-.563-.323-.402-.286v-.45l.445-.246c2.609-1.447 5.21-2.9 7.768-4.437l.577-.347c.825-.462.825-.462 1.56-1.045l-.493-.28q-2.246-1.28-4.49-2.566-1.27-.729-2.546-1.45-.934-.528-1.865-1.062l-.705-.395-.641-.369-.564-.32-.396-.308v-.675l7.118-4.104 2.778-1.597.708-.407.626-.36c.45-.245.45-.245.695-.507"/><path fill="#9AE96E" d="M178.4 42.05q.572.286 1.129.6l.675.38.727.412.76.428a480 480 0 0 1 6.364 3.678c1.419.832 2.842 1.654 4.267 2.475l.727.42 3.84 2.214.403.232 1.912 1.104Q200.95 55 202.7 56c-.509.557-1.024.906-1.683 1.27l-.618.345-.666.368a287 287 0 0 0-6.526 3.756l-.648.38-.568.337c-.543.295-1.088.526-1.666.744v.45l.453.165c.845.358 1.63.793 2.43 1.241l.522.292c1.554.872 3.098 1.765 4.639 2.661l.697.406c2.407 1.406 2.407 1.406 3.184 1.985v.45l-1.074.62-.71.41-1.565.9c-1.252.72-2.502 1.442-3.74 2.186q-.599.359-1.199.714-.757.45-1.51.91l-.696.412-.609.367c-.76.294-1.167.224-1.947.006-.563-.265-.563-.265-1.123-.6l-.642-.38-.682-.412-1.443-.856-.75-.448a607 607 0 0 0-3.741-2.212l-.694-.412-.646-.38-.567-.335a5 5 0 0 0-1.412-.49v-.45l-.487-.183a16 16 0 0 1-1.854-.946l-.712-.413-.758-.44-.779-.452a803 803 0 0 1-7.335-4.316c.287-.86.558-.93 1.337-1.368l.714-.407.776-.433 1.19-.674.82-.464q1.413-.8 2.812-1.627l.746-.44q.71-.418 1.417-.838l.643-.379.566-.334c.454-.236.454-.236.904-.236V56l-.497-.19a15 15 0 0 1-1.68-.833l-.613-.347-.655-.374-.68-.387-1.43-.819q-1.14-.648-2.287-1.287l-1.481-.84-.72-.397-.658-.377-.585-.33-.414-.344v-.9l.456-.253c3.663-2.037 3.663-2.037 7.292-4.135l.462-.271q.98-.579 1.941-1.187l.607-.384.496-.326c.572-.249.759-.162 1.346.031"/><path fill="#3D2111" d="M189.65 164h.45v14.175l5.4-3.15q1.594-.93 3.192-1.856l.743-.434.715-.414.621-.36c.579-.311.579-.311 1.704-.761v14.4l-2.813 1.603a642 642 0 0 0-6.187 3.572 591 591 0 0 1-5.822 3.36c-3.805 2.171-7.608 4.345-11.379 6.574-1.721 1.016-3.456 2.01-5.19 3.006a201 201 0 0 0-4.587 2.712c-.9.548-.9.548-1.147.548a412 412 0 0 1-.105-5.563q-.014-1.29-.048-2.583a123 123 0 0 1-.04-2.494 42 42 0 0 0-.021-.95c-.082-2.473-.082-2.473.633-3.287a10 10 0 0 1 1.606-.873l.686-.407.608-.335.69-.383.716-.394a225 225 0 0 0 5.616-3.201 40 40 0 0 0 1.809-1.13c.067-.605.067-.605.004-1.32l-.043-.84-.027-.451c-.042-.794-.06-1.588-.08-2.383a74 74 0 0 0-.13-3.024c-.352-5.408-.352-5.408 1.044-7.002 1.398-1.095 2.957-1.799 4.596-2.46.905-.375 1.722-.843 2.554-1.355l2.193-1.26.718-.413.626-.36c.45-.245.45-.245.695-.507"/><path fill="#ADF083" d="M215.975 63.65c.53.261.53.261 1.085.592l.638.377.682.41 1.445.855.763.453a204 204 0 0 0 2.834 1.64l1.957 1.118.712.409.632.36c.502.311.502.311.952.761l-.327.177a282 282 0 0 0-8.163 4.623 655 655 0 0 1-5.043 2.923l-1.478.851L209 81.313l-1.462.843-.732.422-14.625 8.438-5.134 2.96a1329 1329 0 0 0-7.044 4.085 642 642 0 0 1-6.28 3.619 537 537 0 0 0-5.448 3.145 572 572 0 0 1-5.85 3.375 667 667 0 0 0-6.54 3.776 1250 1250 0 0 1-7.105 4.114 2339 2339 0 0 0-4.644 2.683 220 220 0 0 1-3.986 2.252l-1.125-1.35.39-.219c2.482-1.394 4.958-2.8 7.415-4.239a582 582 0 0 1 5.892-3.403q3.914-2.233 7.816-4.49 1.39-.803 2.787-1.599a16 16 0 0 0-2.51-1.712l-.398-.225q-.627-.355-1.254-.707l-2.044-1.154a117 117 0 0 1-4.144-2.502c.639-.69 1.26-1.147 2.084-1.598l.701-.387.745-.406q.764-.42 1.526-.843l.757-.419c1.395-.778 2.766-1.596 4.14-2.413.653-.385 1.312-.76 1.972-1.134a14 14 0 0 0-2.291-1.574l-.682-.377-.725-.397a366 366 0 0 1-5.879-3.32q-.32-.18-.648-.367l-.59-.345-.52-.3-.365-.295v-.675l.39-.219c5.479-2.953 5.479-2.953 10.747-6.248.563-.283.563-.283 1.12-.253.642.22 1.182.501 1.768.845l.706.41.752.445 1.974 1.158q1.396.818 2.804 1.613l.754.43q.717.408 1.436.81l.648.373.573.324.403.312v.675c-.403.312-.403.312-.976.636l-.648.372-.71.398-.724.414q-.768.439-1.537.874a573 573 0 0 0-3.65 2.088q-.578.333-1.159.663l-.712.409-.632.36c-.523.297-.523.297-.952.761l.696.381a289 289 0 0 1 6.98 3.973c1.683.985 1.683.985 2.449 1.496.895-.076 1.557-.418 2.33-.857l.7-.394.739-.422.762-.432q2.615-1.486 5.202-3.023 1.153-.681 2.319-1.34a419 419 0 0 0 4.204-2.434q5.732-3.347 11.499-6.635 3.292-1.875 6.572-3.77l.69-.397 1.186-.687a5.8 5.8 0 0 0 1.147-.984l-.696-.381a285 285 0 0 1-6.96-3.973l-.667-.392q-.293-.171-.593-.35a24 24 0 0 0-1.434-.754v-.45l1.074-.62.71-.41 5.328-3.074 3.47-2.004.623-.36c.838-.477 1.126-.538 2.07-.282"/><path fill="#251209" d="M227.675 113.825V142.4l-4.05 2.25q-1.305.754-2.602 1.519a280 280 0 0 1-5.61 3.206 389 389 0 0 0-7.572 4.35 996 996 0 0 1-3.651 2.13c-1.24.72-1.24.72-1.49.72a148 148 0 0 1-.28-5.47 64 64 0 0 0-.127-2.54c-.386-5.432-.386-5.432.903-6.989 1.28-1.037 2.717-1.678 4.24-2.28.867-.354 1.64-.807 2.431-1.301l1.425-.826.743-.434.715-.414.621-.36c.557-.3 1.115-.531 1.704-.761l-.02-.535a277 277 0 0 1-.132-5.004c-.015-.858-.035-1.715-.069-2.573a85 85 0 0 1-.057-2.486q-.007-.472-.031-.945c-.05-1.016-.034-1.895.309-2.857.887-.828 1.83-1.295 2.925-1.8q.438-.248.868-.51l.7-.398.393-.223 1.203-.683 2.372-1.348a90 90 0 0 0 1.537-.9l.73-.437.65-.394c.547-.282.547-.282 1.222-.282"/><path fill="#89DE5E" d="m103.357 27.565.568.31.586.314.63.365.712.412.758.442.78.452a465 465 0 0 1 5.811 3.426l.58.346.505.303c.463.27.463.27 1.113.465v.45l-.451.26-2.53 1.458a488 488 0 0 0-6.566 3.838l-.64.377-.558.33a5 5 0 0 1-1.405.487v.45l.48.179c.69.29 1.318.634 1.967 1.008l.778.446 1.67.962 1.706.981q1.788 1.027 3.58 2.049l1.157.66.478.274.334.191v.45l-.493.28a820 820 0 0 0-8.507 4.895 572 572 0 0 1-5.85 3.375c-4.659 2.519-4.659 2.519-9.109 5.355-.566.27-.566.27-1.116.133l-.575-.313-.635-.339-.695-.398-.781-.446-1.676-.963c-5.659-3.251-5.659-3.251-7.688-4.604 1.228-.883 2.515-1.636 3.84-2.363a193 193 0 0 0 4.794-2.728 542 542 0 0 1 6.752-3.896q1.82-1.04 3.642-2.074l1.622-.924q.567-.324 1.136-.644l.693-.396.607-.345c.556-.366.986-.769 1.439-1.255l-.48-.179c-.692-.29-1.323-.634-1.975-1.008l-.382-.218q-.614-.351-1.227-.704l-.422-.243a431 431 0 0 1-5.569-3.245l-.57-.336-.515-.309-.446-.266c-.339-.242-.339-.242-.564-.692l.43-.24c5.713-3.019 5.713-3.019 11.156-6.466.564-.269.564-.269 1.12-.129"/><path fill="#7F5438" d="m90.65 135.2.45.225V149.6c3.846 2.22 3.846 2.22 7.693 4.435l.74.425 1.453.835.718.413.626.36c.47.282.47.282.695.507.021.449.026.898.026 1.347v.874l-.004.951-.001.968q0 1.275-.006 2.55l-.004 2.602q-.003 2.554-.011 5.108a520 520 0 0 1-5.203-2.869l-.738-.413q-2.67-1.498-5.301-3.065c-.372-.22-.747-.435-1.133-.628v14.175c-2.528-1.264-2.528-1.264-3.469-1.821l-.637-.375-.661-.392a460 460 0 0 0-8.058-4.612l.45-.225V142.4a558 558 0 0 1 5.203 2.869l.738.413q2.67 1.498 5.301 3.065c.372.22.747.435 1.133.628z"/><path fill="#ADF083" d="M153.425 42.05c.53.236.53.236 1.085.57l.638.38.682.414 1.445.861.763.457c1.202.718 2.417 1.415 3.63 2.113l1.161.67c1.136.665 1.136.665 2.296 1.285v.45l-.493.28-2.746 1.566a398 398 0 0 0-4.666 2.694l-.747.44q-.705.415-1.408.832l-.636.376-.557.33c-.447.232-.447.232-.897.232v.45l.453.165c.845.358 1.63.793 2.43 1.241l.522.292c2.007 1.126 3.992 2.29 5.977 3.454q1.38.809 2.768 1.598v.45l-.696.381a282 282 0 0 0-6.596 3.76 517 517 0 0 1-5.308 3.059 632 632 0 0 0-6.047 3.488l-.673.391a140 140 0 0 0-2.818 1.675l-.439.264q-.548.332-1.092.671c-.787.326-1.159.23-1.981.036-.563-.265-.563-.265-1.123-.6l-.642-.38-.682-.412-1.442-.857-.75-.448c-1.247-.742-2.502-1.468-3.756-2.197q-.675-.39-1.348-.784l-.57-.332a28 28 0 0 1-1.162-.74c1.473-1.024 3-1.929 4.561-2.81q1.05-.594 2.097-1.19l.428-.243a369 369 0 0 0 3.967-2.296c4.4-2.574 8.819-5.112 13.247-7.636V56l-.456-.253c-2.886-1.607-5.766-3.22-8.603-4.915a100 100 0 0 0-1.124-.654l-.631-.365-.528-.303-.358-.26v-.45l.493-.28 2.746-1.566a253 253 0 0 0 4.642-2.694l.738-.44q.693-.413 1.381-.832l.63-.376.547-.33c.614-.272.982-.316 1.648-.232"/><path fill="#AD7A54" d="M90.65 164c.968.323 1.628.571 2.473 1.072l.642.378.682.406 2.19 1.294a394 394 0 0 0 3.06 1.786l1.437.834.653.38.577.335c.436.265.436.265.661.49.021.442.026.884.026 1.327v.86l-.004.936-.001.952q0 1.255-.006 2.511l-.004 2.561q-.003 2.514-.011 5.028c-.937-.302-1.745-.64-2.595-1.137l-.715-.416-.754-.444-.778-.454-1.584-.923a453 453 0 0 0-3.474-1.998l-.602-.344c-.927-.535-.927-.535-1.873-1.034v13.95c-1-.333-1.698-.612-2.58-1.13l-.715-.416-.74-.437c-2.765-1.618-5.55-3.19-8.34-4.767v13.95a6.7 6.7 0 0 1-1.93-.776l-.615-.35q-.327-.186-.661-.379l-.684-.39q-1.094-.625-2.185-1.255l-.757-.436q-1.106-.638-2.21-1.28l-.696-.403-.65-.379-.571-.333-.516-.319q-.234-.135-.476-.271c-.424-.404-.424-.404-.532-1.023l.006-.759v-.86l.014-.929.004-.95q.006-1.25.022-2.5.013-1.276.018-2.552.015-2.503.044-5.006c.8.314 1.541.66 2.291 1.08l.682.381.725.41.748.42a237 237 0 0 1 5.72 3.334l.583.349.51.307c.465.275.465.275 1.116.469V171.2c.694.278 1.291.52 1.931.875l.459.255.493.276.522.292c2.204 1.236 4.382 2.517 6.56 3.796q1.09.633 2.185 1.256z"/><path fill="#65402B" d="M115.625 164c1.813.906 3.564 1.825 5.302 2.855l1.294.762.655.41c.621.37 1.238.625 1.916.87 1.239.497 2.345 1.033 3.208 2.078.728 1.905.512 4.062.433 6.067-.026.8-.029 1.6-.034 2.401a230 230 0 0 1-.091 4.537 336 336 0 0 0-.093 5.17 739 739 0 0 1-.215 10.625l-1.19-.648-.669-.365q-1.02-.559-2.03-1.138c-.37-.21-.37-.21-.746-.426l-.78-.446-.83-.475a2193 2193 0 0 1-7.647-4.404l-2.265-1.305a1259 1259 0 0 1-6.568-3.8l-.473-.275c-.576-.338-1.078-.644-1.552-1.118-.054-.592-.054-.592-.051-1.352v-.86l.007-.933.002-.951q.003-1.252.011-2.506.007-1.278.009-2.556.008-2.508.022-5.017l1.515.754.431.214c1.02.508 2 1.047 2.976 1.634 2.474 1.474 4.965 2.922 7.453 4.373z"/><path fill="#89DE5E" d="M128.101 99.453c.674.231 1.257.53 1.878.878l.76.424.805.456.831.467a266 266 0 0 1 5.692 3.296c2.887 1.711 5.794 3.39 8.7 5.07l1.134.657.702.406.617.357c.643.357 1.295.687 1.955 1.011v.45l-.485.277-1.459.832q-.846.484-1.694.965a211 211 0 0 0-4.343 2.532l-.8.476q-.757.453-1.51.915l-.69.41-.604.366c-.565.202-.565.202-1.125.053l-.565-.301-.583-.305-.623-.349q-.343-.194-.7-.392l-.738-.417-.758-.424a95 95 0 0 1-3.396-1.98q-.258-.156-.522-.32a50 50 0 0 1-.937-.592c-.644-.399-1.062-.63-1.83-.577-.798.202-1.392.506-2.104.92l-.391.224q-.41.237-.82.477-.636.374-1.276.74a91 91 0 0 0-4.003 2.419q-.576.372-1.145.754c-.649.272-.649.272-1.259.181-1.087-.528-2.121-1.132-3.159-1.751l-1.438-.848-.758-.448c-1.343-.792-2.696-1.568-4.047-2.346l-2.588-1.491v-.45l.327-.177c2.75-1.492 5.464-3.04 8.163-4.623 1.432-.84 2.869-1.67 4.307-2.498l.726-.419 6.196-3.57.697-.402.612-.353c.58-.328.58-.328 1.138-.727.559-.281.559-.281 1.11-.253"/><path fill="#2A150A" d="M128 213.95h.45l.225 13.95c4.816-2.74 4.816-2.74 9.592-5.549 1.143-.681 2.3-1.33 3.47-1.963 1.252-.685 2.49-1.397 3.729-2.107l.414-.237a329 329 0 0 0 5.585-3.252c1.037-.617 1.037-.617 1.285-.617V228.8l-13.162 7.594-.733.422-1.451.837a1946 1946 0 0 0-6.153 3.56l-.695.401-.609.353c-.638.356-1.293.681-1.947 1.008z"/><path fill="#65412B" d="M40.925 92.225c.816.327 1.517.647 2.275 1.072l.675.378.72.406.744.418a448 448 0 0 1 7.278 4.211q.447.259.908.49v14.4a18.4 18.4 0 0 1-2.447-1.187l-.778-.446-1.67-.962-1.708-.982q-1.773-1.02-3.55-2.034l-.597-.342-.544-.311-.471-.27q-.412-.23-.835-.441V120.8l-3.15-1.8q-1.72-.964-3.443-1.92-.702-.392-1.39-.806a10.7 10.7 0 0 0-1.814-.771c-1.142-.429-2.105-.867-2.803-1.903-.606-2.154-.377-4.512-.263-6.725.04-.84.057-1.68.076-2.521.041-1.644.106-3.286.187-4.929.76.175 1.346.44 2.029.825l.677.38.725.412.747.421a482 482 0 0 1 7.29 4.222q.446.258.907.49z"/><path fill="#ACF083" d="M90.95 34.794c.62.29 1.207.608 1.8.952l.706.41.752.438.775.45a1155 1155 0 0 1 3.22 1.873q2.3 1.34 4.597 2.683c-.287.86-.558.93-1.337 1.368l-.713.406-.777.434-.8.454q-.618.352-1.236.7a275 275 0 0 0-3.884 2.249c-2.205 1.29-4.42 2.56-6.64 3.825a558 558 0 0 0-4.455 2.563q-.964.558-1.924 1.12l-.69.4-.604.352-.565.304-.555.305c-.57.145-.57.145-1.183-.08l-.67-.4-.76-.445-.812-.49-.835-.493q-.868-.51-1.733-1.027c-1.26-.75-2.533-1.478-3.806-2.208l-1.863-1.075-.621-.36-.437-.252c.288-.863.557-.924 1.343-1.35q.348-.194.707-.39l.762-.412q.782-.428 1.562-.86l.772-.423a96 96 0 0 0 2.602-1.5c2.321-1.379 4.662-2.721 7.001-4.068l3.112-1.796q.75-.433 1.5-.862c1.02-.587 2.039-1.174 3.041-1.792q.22-.131.443-.268.546-.333 1.087-.673c.593-.231.593-.231 1.118-.062"/><path fill="#89DE5E" d="M128.301 13.197c.6.278 1.173.577 1.75.9l.674.378.72.406.744.418a448 448 0 0 1 7.278 4.211q.447.258.908.49v.45l-.49.277a446 446 0 0 0-11.435 6.698c.509.557 1.024.906 1.683 1.27l.618.345.666.368a358 358 0 0 1 6.586 3.775l.654.384.578.34q.45.26.915.493c-.296.887-.627.968-1.435 1.418l-.776.437-.84.465-1.726.966-.442.247a88 88 0 0 0-2.878 1.696l-.736.446q-.69.42-1.372.852l-.628.38-.543.337c-.776.256-1.161.054-1.899-.269a27 27 0 0 1-1.237-.68l-.711-.411-.752-.442-.776-.453q-.796-.463-1.588-.93-1.13-.659-2.263-1.309l-1.35-.781-.64-.366-.584-.34-.512-.296c-.387-.292-.387-.292-.612-.967l.493-.28c3.748-2.136 7.486-4.288 11.207-6.47-.568-.639-1.203-1.008-1.945-1.426l-.779-.44-.413-.232q-1.066-.6-2.13-1.207l-.434-.246a388 388 0 0 1-4.143-2.383l-.64-.369-.58-.34-.507-.295-.354-.262V20l.456-.253c3.65-2.03 3.65-2.03 7.264-4.12l.46-.27c.695-.41 1.383-.826 2.064-1.26.239-.15.478-.3.725-.453l.615-.398c.566-.221.566-.221 1.092-.049"/><path fill="#9BEA6F" d="M115.4 20.225c.51.23.988.474 1.477.745l.455.248c1.419.78 2.816 1.598 4.206 2.428.797.475 1.6.938 2.405 1.399l.689.397q.675.39 1.352.773l.618.358.554.318.394.309v.675l-.5.284-2.34 1.333-.429.244a299 299 0 0 0-6.5 3.806l-.576.345-.5.302c-.405.211-.405.211-.855.211.599.639 1.164 1.095 1.93 1.517l.616.343.66.362 1.392.775.73.407c1.494.842 2.97 1.712 4.45 2.58l.654.383.578.34q.45.26.915.493c-.283.848-.517.902-1.288 1.32l-.683.375-.743.4-1.537.845-.399.219c-1.642.904-3.254 1.86-4.866 2.816l-.64.378-.56.332c-1.07.58-1.07.58-1.659.74-.558-.188-.558-.188-1.15-.534l-.675-.387-.72-.429-.746-.431q-.776-.45-1.55-.906a308 308 0 0 0-2.316-1.352 524 524 0 0 1-3.868-2.261l-.63-.35-.495-.325v-.45l.327-.177a260 260 0 0 0 7.722-4.354 78 78 0 0 0 3.302-2.025c.349-.194.349-.194.799-.194v-.45l-.376-.073c-.63-.183-1.136-.462-1.708-.784l-.701-.394-.745-.422-.762-.43a251 251 0 0 1-6.058-3.522l-.504-.296-.5-.3-.461-.274-.335-.255v-.45l1.074-.62 7.65-4.415 1.153-.666.705-.407.623-.36q.465-.266.945-.507"/><path fill="#51A534" d="M40.925 77.825c.844.338 1.547.67 2.325 1.121l.706.409.752.439.775.45 1.2.698q1.395.813 2.796 1.616l1.473.85.705.403.645.375.57.327c.428.287.428.287.653.737.014.444.013.888.005 1.332l-.014.846-.018.918-.016.936-.046 2.466-.045 2.515L53.3 99.2c-2.353-1.16-2.353-1.16-3.485-1.829l-.652-.383-.658-.39c-2.514-1.482-5.046-2.925-7.58-4.373V106.4c-3.082-1.541-3.082-1.541-4.444-2.362l-.968-.576-.528-.315a652 652 0 0 0-3.482-2.049l-.718-.422-.672-.394-.601-.353c-.524-.305-.524-.305-1.187-.504v-14.4c.987.247 1.768.671 2.644 1.167l.526.295c1.774 1 3.532 2.027 5.287 3.058l.656.385.576.339c.89.512 1.789 1.007 2.686 1.506z"/><path fill="#966746" d="M40.925 106.625c1 .333 1.704.614 2.587 1.13l.711.411.752.442.776.452q.993.578 1.984 1.16.57.337 1.143.671l2.074 1.218q.314.187.64.377l1.096.649c.387.24.387.24.612.465.021.442.026.884.026 1.327v.86l-.004.936-.001.952q0 1.256-.006 2.511l-.004 2.561q-.003 2.514-.011 5.028c-1.087-.345-2.011-.801-2.981-1.392l-1.007-.601-.562-.337a327 327 0 0 0-3.313-1.93l-1.885-1.09-.647-.374c-.65-.362-1.315-.694-1.98-1.026v13.95c-.938-.313-1.554-.528-2.359-1.015l-.573-.344-.612-.37-1.315-.787-.702-.42c-1.308-.777-2.627-1.536-3.945-2.295l-.775-.447c-1.147-.672-1.147-.672-2.319-1.297v-14.4c.879.352 1.624.712 2.439 1.179l.383.219.808.463q.587.339 1.175.674c2.538 1.456 5.05 2.951 7.57 4.44z"/><path fill="#89DE5E" d="m53.3 56 .225.45q.558.236 1.125.45.587.306 1.166.63l.681.38.726.41.759.427a333 333 0 0 1 6.61 3.852c2.709 1.608 5.425 3.202 8.185 4.721a158 158 0 0 1 3.839 2.18l.44.255c.34.202.668.422.994.645v.45l-.43.24a420 420 0 0 0-8.88 5.06l-.644.378-.562.332-.509.29-.447.278c-.622.236-.946.145-1.578-.053a22 22 0 0 1-1.282-.69l-.76-.438-.813-.475-.848-.49-1.745-1.012q-1.542-.895-3.088-1.783l-2.89-1.669-3.649-2.105-1.44-.831-.728-.42-6.607-3.812v-.675l.43-.24c3.94-2.19 7.858-4.412 11.72-6.735"/><path fill="#AD7A54" d="M115.625 206.975c11.385 6.21 11.385 6.21 12.375 7.2.022.373.027.747.027 1.12l.001.736-.002.813v.852l-.003 2.317-.002 2.42q-.001 2.292-.005 4.585l-.005 5.219q-.003 5.37-.011 10.738l-1.179-.643-.663-.362a346 346 0 0 1-9.6-5.466 18 18 0 0 0-.933-.504z"/><path fill="#6BC349" d="M90.65 120.8c.816.326 1.481.633 2.226 1.072l.644.378.688.406 1.447.851.754.444q1.152.675 2.307 1.342l.746.432 1.427.825.65.378.575.332c.461.29.461.29.911.74.054.592.054.592.051 1.352v.86l-.007.933-.002.951q-.003 1.252-.011 2.506-.007 1.278-.009 2.556-.008 2.508-.022 5.017a18 18 0 0 1-2.291-1.08l-.682-.381-.725-.41-.748-.42c-5.867-3.31-5.867-3.31-7.929-4.684v14.175c-.968-.323-1.628-.571-2.473-1.072l-.642-.378-.682-.406-1.44-.85-.75-.444a394 394 0 0 0-2.31-1.35l-.75-.436-1.437-.834-.653-.38-.577-.335c-.436-.265-.436-.265-.661-.49a28 28 0 0 1-.026-1.347v-.874l.004-.951.001-.968q0-1.275.006-2.55l.004-2.602q.003-2.554.011-5.108c1.166.579 2.296 1.22 3.431 1.856l.747.418a411 411 0 0 1 7.29 4.211q.446.259.907.49z"/><path fill="#89DE5E" d="m165.75 49.212.642.359.715.39.718.414.655.369q.978.56 1.947 1.136l1.407.828.702.414q.99.579 1.989 1.142l.603.343q.562.319 1.126.633c.423.241.836.499 1.246.76v.45l-.493.28q-2.468 1.407-4.933 2.82l-1.702.972q-1.135.648-2.266 1.3l-.705.4-.641.372-.564.323-.396.283v.45l.456.253c2.886 1.607 5.766 3.22 8.603 4.915q.56.33 1.124.654l.631.366.528.302.358.26v.45l-.43.24a451 451 0 0 0-8.9 5.06c-1.2.702-1.2.702-2.37 1.45-1.054-.066-1.79-.412-2.694-.94l-.776-.448-.82-.482-.841-.489-1.7-.99a445 445 0 0 0-3.547-2.037l-.597-.342-.544-.311-.471-.27q-.412-.23-.835-.441v-.45l1.074-.62.71-.41 1.563-.9a877 877 0 0 0 3.765-2.18l1.613-.938q.576-.335 1.152-.673l.705-.41.623-.363c.495-.256.495-.256.945-.256v-.45l-.487-.184a17 17 0 0 1-1.844-.92l-.7-.392-.738-.416-.759-.427a281 281 0 0 1-5.65-3.277 132 132 0 0 0-1.972-1.134V56l.456-.253c3.65-2.03 3.65-2.03 7.264-4.12l.463-.268c.693-.404 1.36-.817 2.005-1.294 1.63-1.14 1.63-1.14 2.586-.853"/><path fill="#1A6D0E" d="m177.275 99.425.45.225q.071 2.692.105 5.387.014 1.25.048 2.501.032 1.207.04 2.416.004.46.021.92c.082 2.393.082 2.393-.633 3.197-.52.354-1.032.622-1.606.879l-.686.407-.608.335-.69.382-.716.395a192 192 0 0 0-4.823 2.742 428 428 0 0 1-5.47 3.185l-5.14 2.962-1.135.654-.698.402-.612.353q-.595.347-1.18.713c-.517.295-.517.295-.967.295l-.225-14.175 13.895-8.016 6.487-3.741 1.137-.655.697-.402.612-.353q.6-.35 1.18-.727z"/><path fill="#2F3133" d="M152.75 128.225q.119 5.535.175 11.072c.017 1.714.04 3.428.08 5.142q.05 2.24.063 4.483c.004.791.014 1.581.039 2.372.144 4.8.144 4.8-.68 5.961-.776.707-1.63 1.088-2.619 1.413-.706.256-1.308.645-1.947 1.038l-1.453.835-1.458.838-.71.407q-.742.43-1.48.868l-.737.437-.665.398c-.533.286-.533.286-.983.286q-.119-5.535-.175-11.072a414 414 0 0 0-.08-5.142 256 256 0 0 1-.063-4.483 93 93 0 0 0-.039-2.372c-.144-4.8-.144-4.8.68-5.961.776-.707 1.63-1.088 2.619-1.413.706-.256 1.308-.645 1.947-1.038l1.453-.835 1.458-.838.71-.407q.742-.43 1.48-.868l.737-.437.665-.398c.533-.286.533-.286.983-.286"/><path fill="#251209" d="M177.725 128c.126 1.823.221 3.643.28 5.47.028.848.066 1.693.127 2.54.386 5.437.386 5.437-.908 6.992-1.283 1.039-2.722 1.685-4.25 2.286-.81.327-1.508.73-2.25 1.19l-2.77 1.595-.74.426a5115 5115 0 0 0-10.498 6.069l-.691.4-.601.349c-.805.444-1.625.853-2.449 1.258q-.071-2.738-.105-5.475-.014-1.271-.048-2.542-.032-1.227-.04-2.455a40 40 0 0 0-.021-.935c-.082-2.434-.082-2.434.634-3.241.52-.354 1.031-.62 1.605-.877l.674-.41.598-.341.688-.396.726-.414 2.371-1.36q1.861-1.067 3.718-2.141 2.209-1.275 4.42-2.548a551 551 0 0 0 7.823-4.572l.583-.347.512-.306c.387-.215.387-.215.612-.215"/><path fill="#65402B" d="M53.525 113.825c3.342 1.644 3.342 1.644 4.894 2.588l.97.578.53.316c1.145.676 2.298 1.339 3.45 2.002l.763.44q2.288 1.318 4.58 2.626a1771 1771 0 0 1 6.255 3.583l.713.41.63.363.615.369.745.296c.739.737.709.988.758 2.007q0 .894-.021 1.786-.004.474-.006.95-.009 1.245-.033 2.494c-.014.849-.02 1.698-.027 2.547q-.023 2.498-.066 4.995c-1.087-.345-2.011-.801-2.981-1.392l-1.024-.612-.565-.337c-1.129-.67-2.266-1.322-3.403-1.976l-.754-.435-1.534-.883q-2.206-1.271-4.411-2.545a1089 1089 0 0 0-4.595-2.641l-1.498-.857-.688-.396-.598-.341-.674-.41-.523-.234c-.62-.318-1.038-.593-1.502-1.116-.283-1.073-.236-2.132-.198-3.233q.006-.473.009-.947.014-1.242.05-2.484c.02-.846.03-1.692.04-2.538q.034-2.486.099-4.973"/><path fill="#7F5539" d="M90.65 178.4c1 .333 1.704.614 2.588 1.13l.71.411.752.442.776.452q.993.578 1.984 1.16.57.337 1.143.671l2.074 1.218q.314.187.64.377l.584.346.512.303c.387.24.387.24.612.465.021.442.026.884.026 1.327v.86l-.004.936-.001.952q0 1.255-.006 2.511l-.004 2.561q-.003 2.514-.011 5.028c-.666-.263-1.305-.528-1.931-.875l-.459-.255-.493-.276-.522-.292c-2.007-1.126-3.992-2.29-5.977-3.454q-1.38-.809-2.768-1.598v.675a17 17 0 0 1-2.275-1.072l-.675-.378-.72-.406-.744-.418a448 448 0 0 1-7.278-4.211q-.447-.258-.908-.49v-.9c1.406.368 2.575 1.132 3.81 1.87l1.443.851.746.44c1.209.707 2.428 1.396 3.648 2.084l.672.38c1.019.58 1.019.58 2.056 1.125z"/><path fill="#966646" d="M53.3 113.6h.225l-.017.532q-.076 2.491-.093 4.984c-.007.855-.02 1.708-.05 2.562-.274 3.568-.274 3.568.73 6.832.87.798 1.87 1.197 2.98 1.563.754.267 1.377.66 2.058 1.08l2.883 1.659.626.36q1.744 1.011 3.483 2.028l-.225 13.95-.45.225c-.44-.193-.44-.193-.986-.507l-.62-.354-.672-.39-.692-.397q-1.103-.636-2.205-1.277l-.748-.434q-2.032-1.182-4.06-2.371c-.547-.344-.547-.344-1.007-.49-.495-.198-.795-.363-1.16-.755-.247-.924-.22-1.838-.21-2.789l-.011-.864c-.01-.78-.008-1.561-.005-2.342q0-.975-.008-1.952c-.048-6.951.075-13.904.234-20.853"/><path fill="#988E8A" d="M53.3 185.375c.983.393 1.842.85 2.742 1.392a419 419 0 0 0 6.013 3.498l.724.416.64.367.681.402.477.184c.57.257.913.466 1.323.941.257 1.082.21 2.156.176 3.26q-.006.481-.008.964a163 163 0 0 1-.044 2.529c-.019.86-.027 1.722-.036 2.583a458 458 0 0 1-.088 5.064c-.885-.286-1.657-.589-2.457-1.064l-.646-.38-.666-.398c-2.93-1.736-5.88-3.43-8.831-5.133z"/><path fill="#65402B" d="M28.325 171.2c.965.193 1.405.337 2.21.817l.638.377.682.41 1.445.854.762.453q1.214.716 2.437 1.416l.407.234 1.968 1.129.714.41q.314.179.635.365c.477.285.477.285.702.51.021.449.026.898.026 1.347v.874l-.004.951-.001.968q0 1.275-.006 2.55l-.004 2.602q-.003 2.554-.011 5.108c-.848-.275-1.596-.553-2.359-1.015l-.573-.344-.612-.37-2.017-1.207c-1.308-.777-2.627-1.536-3.945-2.295l-.775-.447c-1.147-.672-1.147-.672-2.319-1.297z"/><path fill="#7F5538" d="m90.65 135.2.45.225V149.6c3.846 2.22 3.846 2.22 7.693 4.435l.74.425 1.453.835.718.413.626.36c.47.282.47.282.695.507.021.449.026.898.026 1.347v.874l-.004.951-.001.968q0 1.275-.006 2.55l-.004 2.602q-.003 2.554-.011 5.108a520 520 0 0 1-5.203-2.869l-.738-.413q-2.67-1.498-5.301-3.065c-.372-.22-.747-.435-1.133-.628q-.07-3.213-.127-6.427l-.008-.49c-.092-5.238-.088-10.47.008-15.71l.01-.475q.052-2.85.117-5.698"/><path fill="#135B0B" d="m202.7 84.8.675.225-.9.225.009.433a2637 2637 0 0 1 .112 6.107c.089 5.16.124 10.32.118 15.482v.485q-.004 2.921-.014 5.843h-.225V99.425c-3.84 2.214-3.84 2.214-7.677 4.435l-.734.425-1.436.835-.713.413-.62.36c-.52.282-.52.282-1.195.507V92l2.784-1.59q3.79-2.161 7.565-4.348l.699-.403.614-.356q.461-.264.938-.503"/><path fill="#AD7A54" d="M28.325 142.4c.995.332 1.693.608 2.572 1.121l.712.414.738.434.69.401c.372.217.743.434 1.108.663.896.552 1.791.964 2.771 1.35 1.516.652 2.938 1.3 4.009 2.592.81 2.18.537 4.615.37 6.892-.055.847-.08 1.695-.106 2.543-.058 1.657-.15 3.31-.264 4.965-3.355-1.651-3.355-1.651-4.95-2.616l-.464-.276-1.005-.6a989 989 0 0 0-3.228-1.922c-.215-.129-.43-.258-.653-.39l-.61-.363-.545-.325c-.49-.287-.49-.287-1.145-.483z"/><path fill="#7F5438" d="M28.325 156.8c.807.202 1.315.424 2.029.825l.677.38 1.473.834c6.718 3.8 6.718 3.8 8.421 4.936.081.6.081.6.077 1.373v.873l-.011.948-.003.967q-.005 1.273-.017 2.545-.01 1.3-.013 2.597-.011 2.55-.033 5.097c-1.184-.584-2.363-1.166-3.5-1.837l-.651-.382-.672-.397-1.423-.834-.71-.418q-1.562-.917-3.127-1.827l-.537-.315-.494-.287-.428-.25c-.42-.236-.42-.236-1.058-.428z"/><path fill="#7F5438" d="M41.15 149.825c.724.168 1.282.407 1.93.776l.615.35.661.379.684.39a549 549 0 0 1 5.848 3.394l.65.38.571.337c.463.264.94.506 1.416.744v28.8H53.3l.03-.524q.138-2.465.185-4.934c.017-.846.044-1.69.097-2.535.325-3.74.325-3.74-1.082-7.028-1.398-1.095-2.956-1.799-4.595-2.46-.904-.375-1.72-.842-2.553-1.354l-2.193-1.26-.718-.413-.626-.36c-.47-.282-.47-.282-.695-.507a27 27 0 0 1-.026-1.327v-.86l.004-.936.001-.952q0-1.256.006-2.511l.004-2.561q.003-2.514.011-5.028"/><path fill="#371C0E" d="M128 156.575h.225l.225 14.175 4.95-2.925a741 741 0 0 1 3.164-1.842l.75-.437.72-.417.63-.365c.586-.314.586-.314 1.711-.764l.225 14.175c-6.495 3.789-6.495 3.789-8.578 4.992l-.738.428-.712.412-.617.357c-.641.356-1.299.683-1.955 1.011z"/><path fill="#ADF083" d="M178.4 42.05q.572.286 1.129.6l.677.38.725.412a651 651 0 0 1 6.103 3.488l.697.4.645.376.566.328c.45.295.796.595 1.158.991-1.434.99-2.907 1.87-4.43 2.714-1.405.782-2.8 1.572-4.168 2.417l-.677.415q-.643.396-1.279.802l-.585.359-.511.322c-.5.171-.5.171-1.054.016a56 56 0 0 1-1.721-.917l-.676-.378q-1.505-.85-3.01-1.703-.788-.447-1.58-.889-1.133-.633-2.26-1.274l-.714-.394-.652-.374-.577-.325-.406-.341v-.9l.456-.253c3.663-2.037 3.663-2.037 7.292-4.135l.462-.271q.98-.579 1.941-1.187l.607-.384.496-.326c.572-.249.759-.162 1.346.031"/><path fill="#135B0B" d="M227.675 70.625v14.4l-2.25 1.125q-.623.344-1.235.704l-.644.378-.666.395-2.138 1.254a445 445 0 0 1-3.403 1.966l-.613.353-.56.32-.492.282c-.374.198-.374.198-.599.198q-.024-2.655-.035-5.31-.004-1.233-.016-2.466-.01-1.19-.013-2.381-.004-.675-.012-1.348v-.832l-.005-.732c.093-.754.31-1.17.756-1.781.507-.367.507-.367 1.107-.688l.679-.371.731-.39 1.522-.83.394-.215a153 153 0 0 0 4.215-2.414l1.35-.792.57-.335c.846-.49.846-.49 1.357-.49"/><path fill="#89DE5E" d="M202.88 56.284c.605.203 1.122.484 1.679.798l.701.394.745.422.763.431a291 291 0 0 1 6.057 3.521l.733.438q.76.454 1.517.912c-.568.639-1.203 1.008-1.945 1.426l-.779.44-.834.468-1.715.968-.436.246a84 84 0 0 0-2.729 1.623l-.672.413q-.621.384-1.236.778c-.82.504-1.381.825-2.35.888-1.175-.402-2.18-1.009-3.237-1.653l-1.432-.854-.753-.453c-1.208-.722-2.43-1.421-3.65-2.122l-1.176-.677-1.806-1.041v-.45l1.074-.62.71-.41 5.328-3.074 2.765-1.597.705-.407.623-.36c.902-.513.902-.513 1.35-.448"/><path fill="#86D562" d="M28.325 70.625c1.116.372 1.994.79 2.981 1.392l1.57.94q1.056.62 2.12 1.228l.392.224q.967.554 1.937 1.106l.726.416.644.367.655.402.426.185c.513.266.801.475 1.149.94.223 1.067.183 2.127.154 3.21l-.007.95q-.01 1.245-.039 2.488c-.016.848-.023 1.695-.031 2.543A507 507 0 0 1 40.925 92l-1.981-.982c-1.143-.585-2.245-1.234-3.349-1.887l-.703-.413a916 916 0 0 1-3.243-1.915l-.533-.315-.97-.578c-.604-.358-1.154-.663-1.821-.885z"/><path fill="#6BC248" d="M53.525 85.025q2.474 1.34 4.922 2.728l.594.336c2.29 1.296 4.574 2.605 6.859 3.911v14.4c-1.985-.992-3.907-1.98-5.808-3.108l-.696-.41-1.387-.818a450 450 0 0 0-1.849-1.085l-1.046-.612-.484-.282c-1.08-.634-1.08-.634-1.33-.885a26 26 0 0 1-.03-1.303l-.001-.844V95.2q0-.983.002-1.964l-.001-2.522a893 893 0 0 1 0-2.863v-1.297l.001-.748c.029-.555.029-.555.254-.78"/><path fill="#9AE96E" d="M90.94 34.794c.626.288 1.214.607 1.81.952l.706.41.752.438.775.45a1155 1155 0 0 1 3.22 1.873q2.3 1.34 4.597 2.683c-.287.86-.558.93-1.337 1.368l-.714.407-.776.433-.788.447-1.222.692c-1.664.94-3.31 1.913-4.955 2.884l-.641.377-.563.33c-.479.262-.479.262-1.154.487-.511-.22-.511-.22-1.11-.566l-.668-.381-.697-.403-1.338-.742-1.39-.777-.738-.413q-2.67-1.498-5.301-3.065c-.372-.22-.747-.435-1.133-.628v-.45l.493-.28a902 902 0 0 0 10.203-5.886l.557-.326c.859-.495.859-.495 1.413-.314"/><path fill="#89DE5E" d="m153.302 27.575.573.3.583.305.623.349.699.392.739.417c.376.21.376.21.76.427q2.645 1.493 5.258 3.045c.927.55 1.867 1.074 2.813 1.59-.639.69-1.26 1.147-2.084 1.598l-.701.387-.745.406-2.284 1.263a133 133 0 0 0-3.303 1.907l-.418.248-.402.237q-.45.277-.885.574l-.476.319-.43.297c-.422.189-.422.189-.855.144-.563-.217-1.07-.484-1.596-.78l-.677-.38-.725-.412-.748-.422c-6.718-3.8-6.718-3.8-8.421-4.936v-.45l.327-.177a288 288 0 0 0 8.33-4.714l.628-.365q.627-.375 1.235-.779l.595-.387.523-.355c.512-.198.512-.198 1.064-.048"/><path fill="#7F5438" d="M40.925 178.175c1.331.723 2.66 1.448 3.976 2.198l.386.22 1.207.69.417.238c5.923 3.388 5.923 3.388 6.389 3.854.021.449.026.898.026 1.347v.874l-.004.951-.001.968q0 1.275-.006 2.55l-.004 2.602q-.003 2.554-.011 5.108a18 18 0 0 1-2.439-1.179l-.383-.219-.808-.463q-.783-.451-1.57-.898-.41-.237-.813-.486a16.4 16.4 0 0 0-2.717-1.316c-1.407-.592-2.694-1.182-3.645-2.414-.754-2.22-.49-4.677-.34-6.98.051-.863.073-1.726.098-2.59.053-1.686.137-3.37.242-5.055"/><path fill="#2F3133" d="M165.35 206.975V221.6l-5.625 3.15c-.992.573-1.981 1.147-2.967 1.73l-1.318.776-.555.328c-.626.353-1.266.671-1.91.991a152 152 0 0 1-.28-5.557 66 66 0 0 0-.127-2.582c-.386-5.52-.386-5.52.905-7.092 1.278-1.043 2.714-1.685 4.242-2.28.852-.34 1.599-.768 2.386-1.237l2.084-1.152.686-.38.596-.33c.54-.305.54-.305 1.025-.693.408-.297.408-.297.858-.297"/><path fill="#ADF083" d="M116.3 92.45q.668.332 1.314.707l.775.445.822.48.843.487q.856.496 1.711.996 1.172.681 2.351 1.35l1.353.78.64.363.58.338.507.291.354.288v.675l-.493.28-3.176 1.81c-1.413.805-2.82 1.618-4.212 2.458l-.738.443q-.694.416-1.381.841l-.63.377-.547.335c-.664.262-.974.2-1.648-.019-.53-.261-.53-.261-1.085-.592l-.638-.377-.682-.41-1.444-.853-.762-.453a341 341 0 0 0-3.657-2.122l-2.982-1.718v-.675l1.074-.62.71-.41 1.565-.9c1.253-.72 2.504-1.444 3.746-2.186q.6-.359 1.204-.714.761-.452 1.518-.91l.7-.412.611-.367c.702-.284.985-.248 1.697-.006"/><path fill="#ADF083" d="M140.573 92.272c.7.177 1.193.4 1.81.77l.634.377.677.41 1.439.855.758.453c.805.478 1.618.943 2.432 1.407l.407.232q.984.561 1.969 1.119l.714.409.635.36c.477.311.477.311.702.761l-.451.26q-4.218 2.425-8.422 4.873l-.694.403-.641.375-.563.327a28 28 0 0 0-1.154.737c-.902-.075-1.552-.421-2.325-.875l-.706-.41-.752-.445-1.974-1.158q-1.396-.818-2.804-1.613l-.754-.43q-.717-.408-1.436-.81l-.648-.373-.573-.324-.403-.312v-.675c.362-.292.362-.292.877-.587l.587-.341.645-.366.66-.381q.71-.41 1.421-.816 1.185-.677 2.368-1.361 1.176-.68 2.353-1.357l.717-.412.637-.365c1.29-.758 1.29-.758 1.858-.717"/><path fill="#ADF083" d="M190.467 63.52c1.11.52 2.153 1.134 3.205 1.761l2.19 1.296q1.151.674 2.31 1.333l.75.43q.717.41 1.437.815l.653.376.577.328c.436.316.436.316.661.991l-1.074.62-.71.41-1.565.9c-1.252.72-2.502 1.442-3.74 2.186q-.599.359-1.199.714-.757.45-1.51.91l-.696.412-.609.367c-.76.294-1.167.224-1.947.006-.563-.265-.563-.265-1.123-.6l-.642-.38-.682-.412-1.442-.856-.75-.448a516 516 0 0 0-3.756-2.212l-.7-.412-.648-.38-.57-.335c-.504-.292-.504-.292-1.162-.49v-.45l.43-.24c5.667-3.1 5.667-3.1 11.189-6.444.531-.291.531-.291 1.123-.196"/><path fill="#89DE5E" d="m91.184 49.223.59.355.663.387.688.41q.663.369 1.33.734c2.822 1.568 5.608 3.178 8.345 4.891-.274.82-.45.867-1.19 1.27l-.621.345-.678.368-2.156 1.195a217 217 0 0 0-3.708 2.138l-.69.403c-1.183.681-1.183.681-2.319 1.437-.563.269-.563.269-1.113.132l-.575-.313-.635-.339-.695-.398-.781-.446-1.676-.963c-5.659-3.251-5.659-3.251-7.688-4.604 1.387-.998 2.855-1.823 4.35-2.643a214 214 0 0 0 5.331-3.062l.667-.391q.293-.171.593-.35l.534-.304.45-.3c.45-.15.45-.15.984.048"/><path fill="#ADF083" d="M116.075 34.85c.53.236.53.236 1.085.57l.638.38.682.414 1.445.861.763.457c1.202.718 2.417 1.415 3.63 2.113l1.161.67c1.136.665 1.136.665 2.296 1.285-.283.848-.517.902-1.288 1.32l-.683.375-.743.4-1.537.845-.399.219c-1.642.904-3.254 1.86-4.866 2.816l-.64.378-.56.332c-1.07.58-1.07.58-1.659.74-.558-.188-.558-.188-1.15-.534l-.675-.387-.72-.429-.746-.431q-.776-.45-1.55-.906a308 308 0 0 0-2.316-1.352 524 524 0 0 1-3.868-2.261l-.63-.35-.495-.325v-.45l.327-.177a260 260 0 0 0 7.722-4.354l.652-.382.621-.364c.67-.404 1.32-.833 1.963-1.28.557-.26.93-.261 1.54-.193"/><path fill="#51A534" d="M53.525 99.425c.823.321 1.569.683 2.333 1.13l.709.411.755.442 1.573.914.403.234a313 313 0 0 0 4.794 2.71l.613.344.537.299c.433.266.433.266.883.716.046.592.046.592.03 1.352l-.013.86-.022.933-.017.951q-.023 1.252-.051 2.506-.027 1.278-.05 2.556a1783 1783 0 0 1-.102 5.017 18 18 0 0 1-2.439-1.179l-.383-.219-.808-.463q-.784-.451-1.57-.898-.41-.237-.813-.486a16.7 16.7 0 0 0-2.717-1.32c-1.403-.594-2.691-1.185-3.645-2.41-.751-2.185-.491-4.607-.34-6.876.051-.849.073-1.698.098-2.548.053-1.66.137-3.318.242-4.976"/><path fill="#51A535" d="m115.625 149.6 1.27.63.713.353c1.132.58 2.224 1.223 3.319 1.872l1.294.762.69.434c.623.372 1.246.609 1.932.845 1.252.482 2.35.97 3.157 2.079.67 2.18.422 4.594.294 6.845-.045.852-.064 1.704-.085 2.557a186 186 0 0 1-.209 4.998 18 18 0 0 1-2.33-1.104l-.7-.392-.739-.416-.76-.428c-4.23-2.386-4.23-2.386-5.606-3.255-.433-.266-.433-.266-.907-.434-.57-.254-.917-.476-1.333-.946-.26-1.08-.21-2.156-.176-3.26q.006-.481.008-.964.012-1.264.044-2.529c.019-.86.027-1.722.036-2.583q.03-2.532.088-5.064"/><path fill="#3F2211" d="M140.375 192.575q.103 2.768.152 5.54c.015.857.035 1.714.069 2.572q.047 1.243.057 2.486.007.473.031.945c.05 1.016.034 1.895-.309 2.857-.887.828-1.83 1.295-2.925 1.8q-.438.248-.868.51l-.7.398-.393.223-1.203.683-2.371 1.348q-.777.443-1.546.9l-.737.437-.658.394c-.524.282-.524.282-.974.282v-14.4l5.625-3.15a355 355 0 0 0 2.981-1.73l.675-.395c1.185-.694 1.185-.694 2.36-1.403.509-.297.509-.297.734-.297"/><path fill="#7AD353" d="M140.608 77.866c.514.214.988.46 1.472.735l.615.35.661.379.685.39q1.093.626 2.184 1.255l.753.432q1.1.633 2.2 1.27l.69.397c1.019.593 1.992 1.17 2.882 1.951a707 707 0 0 1-8.872 5.189l-.712.41-.63.361c-.593.333-.593.333-1.154.735-.557.28-.557.28-1.114.25-.639-.22-1.187-.494-1.774-.827l-.699-.394-.739-.422-.76-.43a316 316 0 0 1-5.258-3.057 91 91 0 0 0-2.813-1.59c.285-.856.547-.925 1.321-1.36l.707-.404c.382-.212.382-.212.77-.43l2.013-1.138c.982-.554 1.954-1.123 2.922-1.699l1.192-.703q.57-.34 1.137-.682l.701-.411.616-.367c.546-.231.546-.231 1.004-.19"/><path fill="#7AD353" d="M103.7 42.05c.53.236.53.236 1.085.57l.638.38.682.414 1.445.861.763.457c1.202.718 2.417 1.415 3.63 2.113l1.161.67c1.136.665 1.136.665 2.296 1.285v.45l-3.239 1.846a384 384 0 0 0-6.781 3.947l-.632.373-.55.326c-.48.248-.864.411-1.398.483-.62-.302-.62-.302-1.378-.788l-.9-.56-.515-.322c-1.17-.714-2.361-1.389-3.55-2.07q-1.083-.623-2.165-1.248-.747-.43-1.498-.85l-.75-.425-.68-.382-.489-.33v-.45l.456-.253c3.663-2.037 3.663-2.037 7.292-4.135l.463-.272q.975-.575 1.932-1.178l.6-.378.49-.318c.585-.27.95-.269 1.592-.216"/><path fill="#0D4907" d="M177.725 113.825q.071 2.738.105 5.475.014 1.271.048 2.542.032 1.227.04 2.455.004.468.021.935c.082 2.433.082 2.433-.634 3.242-.52.354-1.03.62-1.605.876l-.675.4-.595.326-.68.376-.708.389a167 167 0 0 0-6.658 3.88l-.46.281c-.349.198-.349.198-.574.198a412 412 0 0 1-.105-5.563q-.014-1.29-.048-2.583a123 123 0 0 1-.04-2.494 42 42 0 0 0-.021-.95c-.082-2.473-.082-2.473.633-3.287a9.7 9.7 0 0 1 1.606-.873l.678-.403.6-.33.684-.38.71-.392c2-1.108 3.988-2.233 5.954-3.4 1.226-.72 1.226-.72 1.724-.72"/><path fill="#89DE5E" d="M116.3 78.05c.53.261.53.261 1.085.592l.638.377.682.41 1.444.853.762.453c1.213.717 2.435 1.42 3.657 2.122l2.982 1.718v.675c-.396.309-.396.309-.96.628l-.64.37-.706.394-1.478.84-.392.222q-1.264.715-2.513 1.456-.855.505-1.711 1.006-.416.245-.83.492-.584.347-1.172.687l-.678.4c-.727.299-1.01.285-1.745.03-.53-.261-.53-.261-1.085-.592l-.638-.377-.682-.41-1.444-.853-.762-.453a341 341 0 0 0-3.657-2.122l-2.982-1.718v-.675l.456-.253c3.663-2.037 3.663-2.037 7.292-4.135l.463-.271a60 60 0 0 0 1.932-1.187q.297-.188.6-.384l.49-.326c.625-.26.942-.144 1.592.031"/><path fill="#402312" d="M202.475 142.4c.115 1.827.203 3.652.256 5.481.026.85.06 1.697.117 2.546.354 5.444.354 5.444-.824 6.95-1.16.977-2.474 1.558-3.88 2.1-.836.335-1.578.776-2.343 1.248a1383 1383 0 0 1-2.91 1.674l-.63.361q-.604.352-1.196.721c-.515.294-.515.294-.965.294q-.071-2.738-.105-5.475-.014-1.271-.048-2.542-.032-1.227-.04-2.455a40 40 0 0 0-.021-.935c-.082-2.431-.082-2.431.628-3.238a10 10 0 0 1 1.611-.88l.748-.448.693-.392.385-.218q.604-.345 1.212-.686l1.677-.952.414-.236a209 209 0 0 0 3.936-2.3c1.037-.618 1.037-.618 1.285-.618"/><path fill="#7AD353" d="M128.675 99.65q.663.32 1.304.681l.761.425.804.455.823.462a257 257 0 0 1 5.817 3.371c.651.385 1.309.758 1.966 1.131-.296.887-.627.968-1.435 1.418l-.776.437-.84.465-1.724.967-.442.247q-1.46.822-2.896 1.687l-.742.443q-.697.42-1.39.843c-.209.125-.417.25-.632.377l-.55.335c-.604.25-.798.225-1.398-.019q-.59-.305-1.162-.642l-.701-.407-.753-.442-2.397-1.397q-1.866-1.084-3.736-2.16l-1.877-1.082-.63-.364-.444-.256c.543-.603 1.127-.968 1.83-1.368l.71-.407.765-.433q.794-.45 1.587-.904l.409-.233q1.396-.8 2.773-1.636l.737-.442q.699-.42 1.392-.848l.637-.38.554-.339c.675-.267.97-.21 1.656.015"/><path fill="#7AD353" d="M65.45 63.425c.764.118 1.36.449 2.029.825l.677.38.725.412.748.422c6.718 3.8 6.718 3.8 8.421 4.936v.45l-.43.24a420 420 0 0 0-8.88 5.06l-.644.378-.562.332-.509.29-.447.278c-.622.236-.945.146-1.578-.053q-.668-.332-1.314-.707l-.774-.445-.823-.48-.843-.487a644 644 0 0 1-2.134-1.241q-.96-.559-1.92-1.114l-1.347-.785-.635-.369-.577-.34-.503-.295c-.38-.262-.38-.262-.605-.712l.493-.28a1134 1134 0 0 0 8.887-5.106l.7-.407.638-.373.56-.326c.41-.227.41-.227.647-.483"/><path fill="#AD7A54" d="M65.9 178.4c.8.314 1.541.66 2.291 1.08l.682.381.725.41.749.42a263 263 0 0 1 5.699 3.314l.581.347.506.303c.446.258.906.49 1.367.72l-.225 14.175a6.7 6.7 0 0 1-1.93-.776l-.615-.35q-.327-.186-.661-.379l-.684-.39q-1.094-.625-2.185-1.255l-.757-.436q-1.106-.638-2.21-1.28l-.696-.403-.65-.379-.571-.333-.516-.319q-.234-.135-.476-.271c-.424-.404-.424-.404-.532-1.023l.006-.759v-.86l.014-.929.004-.95q.006-1.25.022-2.5.013-1.276.018-2.552.015-2.503.044-5.006"/><path fill="#1F7713" d="m139.925 121.025.45.225q.103 2.682.152 5.363c.015.831.035 1.66.069 2.491q.047 1.204.057 2.407c.007.453.03.906.053 1.358.001.868-.032 1.515-.331 2.331-.891.82-1.828 1.284-2.925 1.8q-.727.415-1.447.843l-1.45.83a221 221 0 0 0-5.405 3.179c-.9.548-.9.548-1.148.548q-.103-2.768-.152-5.54c-.015-.857-.035-1.714-.069-2.572a85 85 0 0 1-.057-2.486q-.007-.472-.031-.945c-.05-1.016-.034-1.895.309-2.857.89-.828 1.823-1.286 2.925-1.8q.731-.419 1.455-.85.727-.42 1.456-.837l1.532-.88.733-.42q.87-.502 1.737-1.014l.447-.262 1.113-.659z"/><path fill="#6CC349" d="M115.625 135.2c11.37 6.195 11.37 6.195 12.375 7.2.021.442.026.884.026 1.327v.86l-.004.936-.001.952q0 1.256-.006 2.511l-.004 2.561q-.003 2.514-.011 5.028a18 18 0 0 1-2.33-1.104l-.7-.392-.739-.417-.76-.427c-4.23-2.386-4.23-2.386-5.606-3.255-.433-.266-.433-.266-.907-.434-.57-.254-.917-.476-1.333-.946-.26-1.08-.21-2.156-.176-3.26q.006-.481.008-.964.012-1.264.044-2.529c.019-.86.027-1.722.036-2.583q.03-2.532.088-5.064"/><path fill="#976746" d="m65.9 149.6 1.27.63.713.353c1.132.58 2.224 1.223 3.319 1.872l1.294.762.69.433c.623.372 1.247.612 1.932.85 1.247.484 2.348.973 3.157 2.075.668 2.146.422 4.524.294 6.74-.045.84-.064 1.678-.085 2.517a184 184 0 0 1-.209 4.918c-.942-.168-1.607-.45-2.439-.932l-.383-.22q-.609-.35-1.214-.704l-1.164-.669q-.41-.238-.813-.489a16.4 16.4 0 0 0-2.717-1.327c-1.403-.594-2.691-1.184-3.645-2.409-.751-2.185-.491-4.607-.34-6.876.051-.849.073-1.698.098-2.548.053-1.66.137-3.318.242-4.976"/><path fill="#1F7713" d="m177.275 99.425.45.225q.071 2.692.105 5.387.014 1.25.048 2.501.032 1.207.04 2.416.004.46.021.92c.082 2.393.082 2.393-.633 3.197-.52.354-1.032.622-1.606.879l-.686.407-.608.335-.69.383-.716.394c-1.884 1.044-3.757 2.1-5.596 3.221-.702.422-1.25.684-2.054.885l-.225-14.175 5.625-3.15c2.33-1.36 2.33-1.36 4.642-2.746l.744-.446.639-.39z"/><path fill="#976746" d="M115.625 206.975c11.37 6.195 11.37 6.195 12.375 7.2.021.442.026.884.026 1.327v.86l-.004.936-.001.952q0 1.255-.006 2.511l-.004 2.561q-.003 2.514-.011 5.028c-2.149-1.052-4.256-2.138-6.314-3.36l-.646-.38q-.663-.391-1.314-.805a7.7 7.7 0 0 0-1.638-.698c-1.045-.371-1.87-.76-2.463-1.732-.545-2.197-.333-4.57-.232-6.814.035-.855.05-1.71.067-2.566.036-1.674.094-3.347.165-5.02"/><path fill="#976746" d="M103.25 185.6c.666.263 1.305.528 1.931.875l.459.255.493.276.523.292c1.545.868 3.078 1.755 4.61 2.647l.686.4q.94.547 1.873 1.105l.47.182c.569.258.917.47 1.33.943.257 1.065.21 2.123.176 3.21q-.006.475-.008.95-.012 1.245-.044 2.488c-.019.848-.027 1.695-.036 2.543q-.03 2.493-.088 4.984a13.5 13.5 0 0 1-2.702-1.187l-.78-.446-.821-.476-.844-.486c-6.728-3.88-6.728-3.88-7.228-4.38a27 27 0 0 1-.026-1.327v-.86l.004-.936.001-.952q0-1.255.006-2.511l.004-2.561q.003-2.514.011-5.028"/><path fill="#998F8B" d="M78.275 171.2c.666.263 1.305.528 1.931.875l.459.255.493.276.523.292c1.545.868 3.078 1.755 4.61 2.647l.686.4q.94.547 1.873 1.105l.47.182c.569.258.917.47 1.33.943.257 1.065.21 2.123.176 3.21q-.006.475-.008.95-.012 1.245-.044 2.488c-.019.848-.027 1.695-.036 2.543q-.03 2.493-.088 4.984c-.932-.3-1.74-.635-2.588-1.13l-.71-.411-.752-.442-.776-.452q-.993-.578-1.984-1.16-.57-.337-1.143-.671l-2.074-1.218-.64-.377-1.096-.649c-.387-.24-.387-.24-.612-.465a27 27 0 0 1-.026-1.327v-.86l.004-.936.001-.952q0-1.256.006-2.511l.004-2.561q.003-2.514.011-5.028"/><path fill="#7F5438" d="M40.925 121.025c.987.247 1.768.671 2.644 1.167l.526.296c1.542.87 3.075 1.755 4.607 2.643l.68.394.656.383.576.335.661.407.52.233c.62.319 1.04.594 1.505 1.117.283 1.073.236 2.132.198 3.233q-.006.473-.009.947-.014 1.242-.05 2.484c-.02.846-.03 1.692-.04 2.538a392 392 0 0 1-.099 4.973 17.5 17.5 0 0 1-2.431-1.179l-.78-.447-.81-.47c-2.852-1.641-5.715-3.26-8.579-4.879z"/><path fill="#2F3133" d="M189.65 164h.45v14.4l-2.784 1.59a945 945 0 0 0-5.229 3l-.41.238a1088 1088 0 0 0-2.647 1.535l-.617.36c-.463.252-.463.252-.688.252v-14.4c5.85-3.375 5.85-3.375 7.693-4.435l.74-.425 1.453-.835.718-.413.626-.36c.45-.245.45-.245.695-.507"/><path fill="#251209" d="M152.75 128.225q.071 2.737.105 5.475.014 1.271.048 2.542.032 1.227.04 2.455.005.468.021.935c.082 2.433.082 2.433-.634 3.242-.52.354-1.03.62-1.605.876l-.675.4-.595.326-.68.376-.708.389a167 167 0 0 0-6.658 3.88l-.46.281c-.349.198-.349.198-.574.198a243 243 0 0 1-.175-5.528q-.024-1.284-.08-2.567c-.24-5.487-.24-5.487.55-6.792.752-.742 1.628-1.076 2.624-1.383.717-.244 1.328-.64 1.97-1.036l1.453-.835 1.458-.838.71-.407q.742-.43 1.48-.868l.737-.437.665-.398c.533-.286.533-.286.983-.286"/><path fill="#51A434" d="M78.275 113.825c.932.3 1.74.635 2.588 1.13l.71.411.752.442.776.452q.993.579 1.984 1.16.57.337 1.143.671l2.074 1.218q.314.187.64.377l.584.346.512.303c.387.24.387.24.612.465.021.442.026.884.026 1.327v.86l-.004.936-.001.952q0 1.256-.006 2.511l-.004 2.561q-.003 2.514-.011 5.028a18 18 0 0 1-2.291-1.08l-.682-.381-.725-.41-.748-.42c-5.867-3.31-5.867-3.31-7.929-4.684-.081-.592-.081-.592-.077-1.352v-.86l.011-.933.003-.951q.005-1.252.017-2.506.01-1.278.013-2.556.011-2.51.033-5.017"/><path fill="#AD7A54" d="M90.875 192.8c.818.31 1.568.676 2.33 1.104l.7.392.739.417.759.427a338 338 0 0 1 4.834 2.77q.4.236.791.485c.412.261.412.261.839.436.51.263.804.487 1.158.944.226 1.066.183 2.127.154 3.21l-.007.95q-.01 1.245-.039 2.488c-.016.848-.023 1.695-.031 2.543a507 507 0 0 1-.077 4.984 81 81 0 0 1-5.808-3.108l-.64-.376a52 52 0 0 1-1.332-.812 10.4 10.4 0 0 0-1.784-.79c-1.127-.437-2.1-.878-2.811-1.889-.61-2.044-.388-4.266-.276-6.373.038-.793.052-1.586.07-2.379.11-4.458.11-4.458.431-5.423"/><path fill="#125B0B" d="M190.1 106.625q.071 2.738.105 5.475.014 1.271.048 2.542.032 1.227.04 2.455.004.468.021.935c.082 2.433.082 2.433-.634 3.242-.52.354-1.03.62-1.605.876l-.675.4-.595.326-.68.376-.708.389a167 167 0 0 0-6.658 3.88l-.46.281c-.349.198-.349.198-.574.198l-.225-14.4 6.075-3.375c1.521-.885 3.039-1.77 4.54-2.687l.62-.379.513-.318c.402-.216.402-.216.852-.216"/><path fill="#86D562" d="m65.9 92.225 1.27.63.713.353c1.132.58 2.224 1.223 3.319 1.872l1.294.762.69.433c.623.372 1.247.612 1.932.85 1.247.484 2.348.973 3.157 2.075.668 2.146.422 4.524.294 6.74-.045.84-.064 1.678-.085 2.517a184 184 0 0 1-.209 4.918c-.86-.156-1.472-.376-2.226-.825l-.644-.38-.688-.412-1.447-.857-.754-.448q-1.15-.679-2.307-1.347l-.746-.432-1.427-.824-.65-.378-.575-.332c-.461-.29-.461-.29-.911-.74-.054-.592-.054-.592-.051-1.352v-.86l.007-.933.002-.951q.003-1.252.011-2.506.007-1.278.009-2.556.008-2.508.022-5.017"/><path fill="#51A434" d="M115.625 121.025c.694.278 1.291.52 1.931.875l.459.255.493.276.523.292c1.545.868 3.078 1.755 4.61 2.647l.686.4q.94.547 1.873 1.105.231.09.47.18c.572.258.917.47 1.33.945.257 1.081.21 2.156.176 3.26q-.005.481-.008.964a163 163 0 0 1-.044 2.529c-.019.86-.027 1.722-.036 2.583A458 458 0 0 1 128 142.4l-.6-.344a870 870 0 0 0-5.664-3.212c-2.122-1.197-4.226-2.423-6.336-3.644z"/><path fill="#51A434" d="M90.65 106.625c1.087.345 2.011.8 2.981 1.392l1.007.602.562.337c1.48.875 2.977 1.725 4.47 2.579l.728.418.647.37.63.377.747.297c.737.737.707.989.756 2.006q0 .894-.021 1.786-.004.474-.006.95-.009 1.246-.033 2.494c-.014.849-.02 1.698-.027 2.547q-.023 2.498-.066 4.995c-.666-.263-1.305-.528-1.931-.875l-.459-.255-.493-.276-.523-.292a333 333 0 0 1-4.61-2.647l-.686-.4q-.94-.547-1.873-1.105l-.47-.182c-.569-.258-.917-.47-1.33-.943-.257-1.065-.21-2.123-.176-3.21q.006-.475.008-.95.012-1.245.044-2.488c.019-.848.027-1.695.036-2.543q.03-2.493.088-4.984"/><path fill="#65402B" d="M78.275 142.4c11.385 6.21 11.385 6.21 12.375 7.2.021.442.026.884.026 1.327v.86l-.004.936-.001.952q0 1.255-.006 2.511l-.004 2.561q-.003 2.514-.011 5.028c-2.856-1.412-2.856-1.412-4.026-2.1l-.66-.386-1.38-.812a342 342 0 0 1-4.404-2.627 26 26 0 0 0-1.905-1.05z"/><path fill="#65402B" d="M103.025 214.175c.76.298 1.467.62 2.177 1.023l.613.347.655.374.68.386c6.741 3.84 6.741 3.84 8.25 4.845.081.6.081.6.077 1.373v.873l-.011.948-.003.967q-.006 1.273-.017 2.545-.01 1.3-.013 2.597-.011 2.55-.033 5.097c-.89-.288-1.668-.595-2.473-1.072l-.652-.383-.672-.401-1.292-.763-.733-.462c-.74-.443-1.5-.752-2.301-1.067-1.525-.652-2.947-1.307-4.027-2.602-.84-2.206-.604-4.68-.475-6.996.042-.86.053-1.722.066-2.584.031-1.684.096-3.363.184-5.045"/><path fill="#998F8B" d="m41.15 106.625 1.981.982c1.143.585 2.245 1.234 3.349 1.887l.702.413 1.401.825a537 537 0 0 0 2.903 1.7l.484.283c1.08.634 1.08.634 1.33.885.021.442.026.884.026 1.327v.86l-.004.936-.001.952q0 1.256-.006 2.511l-.004 2.561q-.003 2.514-.011 5.028c-1.087-.345-2.011-.8-2.981-1.392l-1.006-.602-.562-.337q-1.065-.626-2.138-1.236l-.395-.227q-.978-.56-1.958-1.116l-.73-.418-.651-.37c-.639-.399-1.186-.753-1.729-1.277-.135-.646-.135-.646-.128-1.403v-.86l.018-.926.005-.95q.007-1.246.028-2.494.015-1.274.022-2.547.019-2.498.055-4.995"/><path fill="#65402B" d="M103.25 128.225c.666.263 1.305.528 1.931.875l.459.255.493.276.522.292c2.204 1.236 4.382 2.517 6.56 3.796q1.09.633 2.185 1.256v14.4c-3.084-1.542-3.084-1.542-4.444-2.363l-.967-.575-.527-.315c-1.408-.833-2.826-1.65-4.241-2.471l-.677-.394-.608-.353c-.461-.279-.461-.279-.686-.504a27 27 0 0 1-.026-1.327v-.86l.004-.936.001-.952q0-1.255.006-2.511l.004-2.561q.003-2.514.011-5.028"/><path fill="#65402B" d="M90.875 135.425c.76.298 1.467.62 2.177 1.023l.613.347.655.374.68.386a767 767 0 0 1 5.878 3.384l.654.38.578.337c.465.294.465.294.915.744.054.592.054.592.051 1.352v.86l-.007.933-.002.951q-.003 1.252-.011 2.506-.007 1.278-.009 2.556-.008 2.508-.022 5.017l-1.293-.643-.727-.362a38 38 0 0 1-2.424-1.357l-1.494-.89c-1.408-.834-2.826-1.652-4.241-2.472l-.677-.394-.608-.353c-.461-.279-.461-.279-.686-.504a27 27 0 0 1-.026-1.327v-.86l.004-.936.001-.952q0-1.256.006-2.511l.004-2.561q.003-2.514.011-5.028"/><path fill="#966645" d="M90.65 207.875c1.806.903 3.554 1.817 5.287 2.84l.63.369q.681.4 1.35.822c.645.388 1.3.66 2.002.931 1.29.55 2.463 1.103 3.331 2.238.688 2.048.446 4.317.309 6.443-.046.796-.067 1.593-.09 2.39a154 154 0 0 1-.219 4.667 18 18 0 0 1-2.33-1.104l-.7-.392-1.499-.844a228 228 0 0 1-4.793-2.77c-1.082-.646-2.175-1.252-3.278-1.865z"/><path fill="#805539" d="M28.325 128.9c.879.352 1.624.712 2.439 1.179l.774.443 1.666.957a555 555 0 0 1 5.4 3.144l.636.375.577.342.503.298c.38.237.38.237.605.462.021.414.026.83.026 1.244v.805l-.004.877-.001.892q0 1.175-.006 2.351l-.004 2.398q-.003 2.355-.011 4.708a18 18 0 0 1-2.447-1.187l-.778-.446-1.67-.962-1.708-.982q-1.773-1.02-3.55-2.034l-.597-.342-.544-.311-.471-.27q-.412-.23-.835-.441z"/><path fill="#381D0F" d="M202.475 186.5q.103 2.593.152 5.187c.015.804.035 1.606.069 2.41.207 5.131.207 5.131-.467 6.346-.735.775-1.69 1.036-2.679 1.357-.533.293-1.05.592-1.569.908a123 123 0 0 1-1.195.68l-1.601.909-1.17.665q-.777.443-1.546.9l-.737.437-.658.394c-.524.282-.524.282-.974.282a129 129 0 0 1-.28-5.117 56 56 0 0 0-.127-2.378c-.386-5.078-.386-5.078.903-6.584 1.284-1.025 2.724-1.677 4.238-2.293.867-.362 1.65-.817 2.45-1.308l2.19-1.26.72-.414.628-.36c1.292-.761 1.292-.761 1.653-.761"/><path fill="#966645" d="M78.275 186.5c.968.323 1.628.571 2.473 1.072l.642.378.682.406 2.19 1.294q1.154.68 2.31 1.35l.75.436 1.437.834.653.38.577.335c.436.265.436.265.661.49.021.414.026.83.026 1.244v.805l-.004.877-.001.892q0 1.175-.006 2.351l-.004 2.398q-.003 2.355-.011 4.708c-.885-.286-1.657-.589-2.457-1.064l-.635-.375-.677-.403-1.438-.848-.758-.448c-1.343-.792-2.696-1.568-4.047-2.346l-2.588-1.491z"/><path fill="#ACF082" d="M41.6 63.65c.572.282.572.282 1.184.642l.699.407.747.442 2.387 1.397c1.24.726 2.486 1.443 3.731 2.16l1.878 1.082.63.364.444.256v.45l-.43.232a244 244 0 0 0-5.223 2.932l-.825.473-.407.234q-.59.335-1.184.664c-.696.39-.696.39-1.25.83-.513.377-.853.595-1.481.71-1.075-.326-1.974-.915-2.91-1.519l-.824-.501q-.855-.52-1.703-1.049c-1.245-.772-2.518-1.494-3.79-2.22q-.934-.535-1.865-1.074l-.621-.36-.437-.252v-.675l3.78-2.154c1.26-.717 2.516-1.436 3.75-2.194l.526-.32q.468-.289.93-.584c.875-.537 1.286-.661 2.264-.373"/><path fill="#89DE5E" d="M190.515 77.986c.702.286 1.333.61 1.987.992l.728.423.765.449.785.457q1.148.67 2.295 1.343l.647.379q1.59.932 3.178 1.871c-.543.603-1.127.968-1.83 1.368l-.71.407-.765.433-1.996 1.137q-1.396.8-2.773 1.636l-.737.442q-.699.42-1.392.848l-.637.38-.554.339c-.668.264-.978.205-1.656-.015-.524-.248-.524-.248-1.068-.559l-.62-.353-.66-.382-.683-.39a488 488 0 0 1-7.094-4.166c.901-.774 1.843-1.325 2.883-1.884 2.191-1.197 4.345-2.455 6.5-3.718l.626-.363q.523-.308 1.027-.644c.664-.434.964-.629 1.754-.43"/><path fill="#9AE96E" d="M54.425 71.075q.663.355 1.314.729l.775.443 1.665.957a531 531 0 0 1 7.496 4.396c-.68.742-1.371 1.213-2.247 1.704l-.393.222q-.627.353-1.255.704l-1.71.966-.421.237a151 151 0 0 0-4.549 2.692l-.491-.283q-2.354-1.349-4.722-2.668a811 811 0 0 1-3.562-1.999l-.584-.33q-.73-.413-1.455-.837l-.422-.239c-.373-.22-.373-.22-.914-.619v-.675l.404-.226c2.649-1.483 5.284-2.983 7.874-4.567l.529-.322.46-.283c.918-.511 1.287-.437 2.208-.002"/><path fill="#9AE96E" d="m78.275 84.8.498.29 5.533 3.229c1.086.635 2.173 1.267 3.269 1.886l.542.31q.497.284.997.56c.44.253.44.253 1.086.7v.675c-.42.323-.42.323-1.015.66l-.666.383-.724.405-.733.418-1.512.857q-1.07.612-2.129 1.243l-.647.38q-.608.36-1.213.723l-.554.323-.482.286c-.566.216-.788.163-1.35-.053a20 20 0 0 1-1.03-.551l-.615-.35-.661-.379-.685-.39Q75.091 95.779 74 95.15l-.753-.432a805 805 0 0 1-2.89-1.667c-1.019-.593-1.992-1.17-2.882-1.951a840 840 0 0 1 10.8-6.3"/><path fill="#ADF083" d="M128.9 114.05c.63.3.63.3 1.277.681l.728.425.765.455.785.46q.781.458 1.561.92.984.581 1.969 1.158 1.297.76 2.59 1.526c-.3.901-.67.991-1.49 1.45l-.392.22q-.633.356-1.268.707l-2.162 1.21q-1.237.693-2.443 1.441l-.526.325q-.468.292-.93.594c-.414.256-.414.256-1.139.578-.79-.246-1.49-.633-2.209-1.039l-.627-.354-.666-.379-.686-.389a266 266 0 0 1-6.612-3.914c.288-.863.557-.924 1.343-1.35l.708-.39.762-.412 1.54-.847.77-.422c1.305-.725 2.586-1.488 3.87-2.25 1.01-.597 1.326-.673 2.482-.404"/><path fill="#B6F586" d="m225.875 69.5 1.8.9c-.692.544-1.41.984-2.176 1.418l-.768.436-.407.23q-1.073.608-2.144 1.218l-.439.25a372 372 0 0 0-3.966 2.298 570 570 0 0 1-5.85 3.375 667 667 0 0 0-6.54 3.776 1257 1257 0 0 1-7.121 4.123l-3.664 2.114-1.463.843q-.359.209-.73.422l-13.895 8.016-.731.422-4.822 2.782c-5.284 3.051-5.284 3.051-7.834 4.502l-.225-.45q-.555-.245-1.125-.45c.54-.598 1.117-.963 1.815-1.36l.702-.403.76-.43.79-.453 1.643-.939q1.874-1.071 3.74-2.153l1.463-.843q.359-.209.73-.422l8.776-5.063 5.134-2.96q3.529-2.032 7.044-4.085a701 701 0 0 1 6.64-3.826c2.347-1.338 4.687-2.687 7.026-4.038.21-.121.42-.243.638-.367q.534-.31 1.063-.627c1.016-.606 1.016-.606 1.761-.606v-.45l.485-.277a2582 2582 0 0 0 9.884-5.66l.7-.404.618-.356c.445-.242.445-.242.688-.503"/><path fill="#B0F380" d="m164.337 105.767.563.408v.675l-.43.24a469 469 0 0 0-9.225 5.258c-2.148 1.26-4.307 2.499-6.465 3.742a2339 2339 0 0 0-4.644 2.683 220 220 0 0 1-3.986 2.252l-1.125-1.35.39-.219c2.482-1.394 4.958-2.8 7.415-4.239a584 584 0 0 1 5.892-3.403q3.196-1.821 6.384-3.656l.726-.417.684-.394.642-.37c.69-.41 1.356-.85 2.014-1.31.378-.167.378-.167 1.165.1"/><path fill="#C7F89D" d="M117.173 119.957c.547.193 1.019.44 1.523.727l.622.353.666.382.688.39a114 114 0 0 1 3.556 2.101l.674.413q.642.395 1.276.8l.586.359.511.322c.505.226.505.226 1.05.017a61 61 0 0 0 1.773-.942l.696-.388.736-.414.755-.423a85 85 0 0 0 5.056-3.053c1.112-.71 1.112-.71 1.69-.67.57.249.787.58 1.119 1.094a2940 2940 0 0 1-8.592 5.006l-.752.439-.706.409-.621.36-.579.311-.556.307c-.82.206-1.15-.063-1.867-.49l-.768-.448-.817-.494-.84-.495q-.863-.51-1.723-1.023a148 148 0 0 0-2.454-1.425l-.75-.43-1.41-.805-.636-.369q-.275-.156-.557-.32c-.447-.308-.447-.308-.897-.983.997-.692.997-.692 1.548-.618"/><path fill="#512F1F" d="M53.525 113.825c3.586 1.793 3.586 1.793 4.894 2.588l.97.578.53.316c1.145.676 2.298 1.339 3.45 2.002l.763.44q2.567 1.478 5.141 2.946 2.479 1.416 4.952 2.844l.762.44.715.412.633.365.59.344.639.326.486.349v.9c-.852-.319-1.62-.71-2.407-1.163l-.76-.435-1.66-.956a1555 1555 0 0 1-3.379-1.945q-3.914-2.25-7.811-4.53c-4.092-2.439-4.092-2.439-8.283-4.696V128h-.225z"/><path fill="#C7FA9D" d="m30.545 69.695.677.452.823.52.472.303c1.077.667 2.195 1.264 3.303 1.877a403 403 0 0 1 5.12 2.897l.486.276c.366.214.721.445 1.074.68v.45l-1.125.225v.45c-.784-.15-1.375-.465-2.062-.867q-.346-.2-.7-.407l-.754-.442-1.986-1.157a389 389 0 0 0-3.728-2.149l-1.547-.884-.705-.405-.623-.357c-.495-.307-.495-.307-.945-.757 1.379-.96 1.379-.96 2.22-.705"/><path fill="#C6F99C" d="M80.75 98.75c.556.261.556.261 1.107.592l.635.377.677.41 2.197 1.308a156 156 0 0 0 2.84 1.64q.983.56 1.968 1.118l1.35.77c.476.31.476.31.701.76l-.436.31c-.486.329-.486.329-.689.815l-.396-.232-1.91-1.118-.722-.422a320 320 0 0 0-4.961-2.843q-.628-.356-1.258-.708-.59-.33-1.177-.662l-.681-.382c-.584-.376-1.026-.774-1.495-1.283.79-.759 1.213-.698 2.25-.45"/><path fill="#C7F89D" d="M177.28 98.675c.513.086.854.005 1.345-.15-.639.69-1.26 1.147-2.084 1.598l-.701.387-.745.406-2.29 1.266a118 118 0 0 0-2.772 1.602 290 290 0 0 1-4.908 2.841l-.225-.45q-.555-.245-1.125-.45c.543-.603 1.127-.968 1.83-1.368l.71-.407.765-.433q.795-.45 1.59-.904l.41-.233a92 92 0 0 0 2.737-1.636l.725-.442q.683-.418 1.356-.848c1.2-.727 1.984-1.1 3.383-.779"/><path fill="#B0F480" d="m105.071 112.868.539.286q.299.156.606.32c1.07.592 2.127 1.205 3.18 1.828l1.417.832.72.422a382 382 0 0 0 4.036 2.319l1.406.8c-.532.568-.825.875-1.575 1.125-.429-.166-.429-.166-.916-.44l-.549-.306-.588-.337-.608-.342a248 248 0 0 1-4.761-2.767c-1.341-.795-2.697-1.564-4.053-2.333v-.45l-.45-.45c.528-.51.873-.765 1.596-.507"/><path fill="#C7F89D" d="m225.875 69.5 1.8.9c-.696.548-1.42.99-2.192 1.426l-1.605.908c-1.637.925-3.27 1.851-4.873 2.837l-.676.413q-.625.385-1.245.778c-1.377.843-1.377.843-2.327.816l-.582-.203-.675-.225v-.45l.485-.277a2582 2582 0 0 0 9.884-5.66l.7-.404.618-.356c.445-.242.445-.242.688-.503"/><path fill="#B0F480" d="M55.775 84.35c.572.282.572.282 1.184.642l.699.407.747.442 2.387 1.397c1.24.726 2.486 1.443 3.731 2.16l1.878 1.082.63.364.444.256c-.66.533-1.108.834-1.988.791-1.168-.279-2.185-1.004-3.201-1.62l-1.166-.693-1.189-.712q-1.118-.667-2.25-1.31l-1.343-.773-.635-.36-.582-.339-.508-.292c-.469-.36-.643-.675-.863-1.217.768-.484 1.16-.462 2.025-.225"/><path fill="#BBF78D" d="M189.425 91.55q.454.218.9.45c-2.635 1.67-5.348 3.209-8.055 4.759q-.737.426-1.467.862l-.722.43-.644.389c-.847.448-1.43.57-2.387.535-.5-.34-.5-.34-.9-.675l1.074-.62 7.65-4.415 1.858-1.073.623-.36c.837-.477 1.126-.53 2.07-.282"/><path fill="#BBF78D" d="m163.55 105.5 1.35.675v.675l-.43.24q-1.023.567-2.045 1.138l-.762.424a143 143 0 0 0-3.9 2.25l-.727.435q-.686.412-1.368.833c-1.213.727-2.158 1.235-3.593 1.205-.45-.323-.45-.323-.675-.675 1.387-.998 2.855-1.823 4.35-2.643 1.56-.858 3.1-1.747 4.636-2.645l.715-.417c1.24-.723 1.24-.723 2.449-1.495"/><path fill="#513120" d="M103.25 171.2c3.605 1.803 3.605 1.803 4.922 2.602a135 135 0 0 0 3.497 2.036l.75.424q.738.418 1.48.828l.68.387.611.342.435.356v.9c-.867-.323-1.646-.725-2.447-1.187l-.385-.22-1.218-.702-1.575-.906-1.8-1.035-4.725-2.7v13.05h-.225z"/><path fill="#2C150A" d="M190.1 178.4c-.006.5-.006.5-.225 1.125-.567.388-1.093.692-1.702.998q-.552.292-1.104.587l-.604.319c-1.167.631-2.309 1.306-3.452 1.977l-.675.394q-1.873 1.093-3.718 2.233c-.445.242-.445.242-.895.242.037-.513.037-.513.225-1.125.518-.408.518-.408 1.21-.787l.776-.432.84-.454.853-.473q.655-.364 1.311-.726c1.711-.944 3.39-1.942 5.07-2.94l.636-.376.557-.33c.447-.232.447-.232.897-.232"/><path fill="#251108" d="m202.25 156.8.225.9c-1.387.998-2.854 1.823-4.35 2.642a196 196 0 0 0-5.351 3.082l-.67.394-.596.353c-.508.279-.508.279-1.183.504.044-.517.044-.517.225-1.125.47-.384.47-.384 1.096-.73l.708-.398.77-.419 1.185-.664 1.243-.691c1.258-.7 2.502-1.423 3.747-2.145q.938-.543 1.877-1.083l.63-.364z"/><path fill="#643F29" d="M103.25 200c1.4.368 2.565 1.122 3.797 1.856l1.44.854.75.444q1.149.669 2.31 1.315l.75.423q.716.404 1.437.799.32.183.653.37l.577.322c.55.463.595.79.661 1.492-1.169-.573-2.296-1.22-3.431-1.856l-.747-.418a411 411 0 0 1-7.29-4.211q-.446-.258-.907-.49z"/><path fill="#4F301F" d="M28.325 171.2c.856.13 1.468.374 2.21.817l.638.377.682.41 2.207 1.31c.805.474 1.62.928 2.437 1.381l1.207.676q.582.322 1.168.64l.714.402q.314.171.635.35c.477.387.477.387.659.996l.043.516a74 74 0 0 1-5.33-2.869l-.703-.413a916 916 0 0 1-4.747-2.808c-.603-.358-1.153-.663-1.82-.885z"/><path fill="#754C33" d="M90.65 207.2c.911.133 1.557.425 2.348.89l.717.418.76.45 1.178.689.798.467a178 178 0 0 0 3.24 1.856l1.216.682.55.31.475.267c.435.282.766.544 1.093.946v.675a17 17 0 0 1-2.33-1.104l-.7-.392-.739-.417-.76-.427a213 213 0 0 1-5.63-3.26 50 50 0 0 0-.92-.538l-.5-.295-.461-.265-.335-.277z"/><path fill="#754B32" d="M78.275 185.6c1.4.368 2.565 1.122 3.797 1.856l1.44.854.75.444q1.149.669 2.31 1.315l.75.423q.716.404 1.437.799.32.183.653.37l.577.322c.55.463.595.79.661 1.492a471 471 0 0 1-5.203-2.869l-.738-.413q-2.67-1.498-5.301-3.065c-.372-.22-.747-.435-1.133-.628z"/><path fill="#4F301F" d="M65.9 164c.823.309 1.565.68 2.325 1.121l.706.409 2.726 1.59q1.396.809 2.804 1.597l.754.427q.716.405 1.436.803l.648.37.573.32.403.338v.9c-.863-.322-1.64-.72-2.439-1.179l-.775-.442-.822-.474-.42-.242-1.707-.985q-1.385-.8-2.778-1.585l-1.353-.774-.64-.357-.58-.336-.507-.287-.354-.314z"/><path fill="#633E28" d="M40.925 121.025c.978.213 1.78.678 2.644 1.167l.526.296c1.542.87 3.075 1.755 4.607 2.643l.68.394A63 63 0 0 1 53.3 128l-.225.9q-.179-.105-.362-.215a513 513 0 0 0-6.172-3.624l-.396-.228-1.922-1.102q-.976-.56-1.948-1.131l-.468-.273c-.376-.232-.376-.232-.882-.627z"/><path fill="#4F2F1F" d="M28.325 99.425c.763.15 1.353.444 2.029.825l.677.38.725.412.748.422c6.718 3.8 6.718 3.8 8.421 4.936l-.225.9-2.813-1.603-.426-.243a461 461 0 0 1-4.658-2.687 638 638 0 0 1-2.143-1.26l-.634-.373-.554-.326c-.491-.286-.491-.286-1.147-.483z"/><path fill="#4F301F" d="M40.925 92.225c.793.301 1.526.651 2.268 1.064l.671.375.717.403.742.416c2.69 1.519 5.337 3.11 7.977 4.717l-.225.9a2388 2388 0 0 1-12.15-6.975z"/><path fill="#633E29" d="M90.875 178.4a71 71 0 0 1 5.906 3.19c.795.476 1.598.936 2.405 1.39l.685.391q.67.381 1.343.754l.616.354.55.31c.536.46.576.798.645 1.486-2.77-1.43-5.456-2.994-8.14-4.578q-.862-.503-1.732-.993l-.482-.277a54 54 0 0 0-.87-.488c-.378-.219-.378-.219-.926-.639z"/><path fill="#4E301F" d="M53.525 142.625c.978.296 1.817.677 2.702 1.187l.78.446.821.476.843.486a345 345 0 0 1 7.004 4.155l-.225.9a494 494 0 0 1-8.62-4.88l-.69-.4-.644-.376-.562-.328c-.97-.603-.97-.603-1.409-.991z"/><path fill="#4F2E1F" d="M103.25 128.225c1.02.372 1.94.877 2.883 1.406l.522.292c2.007 1.126 3.992 2.29 5.977 3.454q1.38.809 2.768 1.598v.9c-.867-.323-1.646-.725-2.447-1.187l-.778-.446-1.67-.962-1.706-.981q-1.788-1.028-3.58-2.049l-1.157-.66-.478-.274-.334-.191z"/><path fill="#4F2F1F" d="M115.625 164a73 73 0 0 1 5.302 2.855l2.109 1.24q1.579.926 3.164 1.84l.554.32 1.246.72-.225.9a265 265 0 0 1-9.28-5.262q-.635-.372-1.28-.725l-.625-.35-.563-.308-.402-.33z"/><path fill="#4F2E1F" d="M78.275 142.4c3.514 1.91 7.025 3.832 10.463 5.878l.513.298c1.138.688 1.138.688 1.33 1.281l.069.418a17 17 0 0 1-2.33-1.104l-.7-.392-.739-.417-.76-.427c-1.888-1.065-3.776-2.135-5.63-3.26a33 33 0 0 0-.92-.53l-.5-.289-.461-.257-.335-.299z"/><path fill="#4F2E1F" d="M90.875 135.425c.763.29 1.467.62 2.177 1.023l.613.347.655.374.68.386a767 767 0 0 1 5.878 3.384l.654.38.578.337c.465.294.465.294.915.744-.084.478-.084.478-.225.9l-.3-.216c-1.302-.903-2.663-1.666-4.05-2.426a224 224 0 0 1-5.37-3.082l-.672-.394-.6-.353a18 18 0 0 0-.933-.504z"/></svg>